<svg width="282" height="100" viewBox="0 0 282 100" fill="none" xmlns="http://www.w3.org/2000/svg">
<g clip-path="url(#clip0_1_15530)">
<mask id="mask0_1_15530" style="mask-type:luminance" maskUnits="userSpaceOnUse" x="0" y="0" width="282" height="100">
<path d="M282 0H0V100H282V0Z" fill="white"/>
</mask>
<g mask="url(#mask0_1_15530)">
<path d="M83.1072 22.6268C85.4279 22.2725 87.4379 21.2793 89.1738 20.1912C87.1364 20.982 85.1903 21.8866 83.1072 22.6268ZM183.187 1.4472C193.585 0.333814 204.183 -0.520201 214.681 0.37177C219.13 0.814593 223.826 1.5927 227.17 3.81946C229.555 5.39464 230.423 7.83649 229.81 10.0443C228.924 13.6058 225.726 16.6107 222.428 19.3119C219.915 21.3583 217.202 23.2813 214.332 25.085C211.924 26.5988 206.805 29.3766 206.805 29.3766C206.805 29.3766 195.613 34.4818 189.309 36C195.22 33.6783 206.074 27.9849 206.074 27.9849C206.074 27.9849 216.654 21.5513 221.085 17.7747C223.205 15.9655 225.215 14.036 226.421 11.8472C227.353 10.3036 227.864 8.52603 227.042 6.90657C226.384 5.4326 224.53 4.40146 222.602 3.73722C219.084 2.49099 215.11 2.11143 211.227 1.88369C200.537 1.39026 189.884 2.52895 179.304 3.4652C152.133 6.14111 125.235 10.3353 99.1873 16.364C98.2554 16.5727 97.223 16.7562 96.7022 17.3951C96.0353 18.1922 94.5917 18.0783 93.4588 18.0277C90.5717 20.8175 86.2228 22.5951 81.8556 24.0944C82.084 23.6769 82.3124 23.2657 82.5408 22.8545C81.8738 22.9684 81.2069 23.0886 80.5399 23.1961C81.8921 22.0701 83.491 21.0895 85.2269 20.2482C82.7418 21.0453 80.5308 22.1966 78 22.9241C79.0781 21.8613 80.4577 20.9061 82.1845 20.3557C81.3713 20.2798 80.3937 20.2861 79.8181 19.8117C78.9228 19.0968 79.0781 17.8759 80.211 17.3319C81.2251 16.8574 82.4129 16.6044 83.5732 16.3513C82.8332 16.8954 82.1571 17.6418 80.9693 17.6988C79.9095 17.7431 80.0191 18.7173 80.211 19.2297C80.7318 19.7168 81.7368 20.0331 82.5865 19.7864C84.1305 19.5017 85.4644 18.9007 86.844 18.3567C86.4055 18.0657 86.0126 17.7431 85.7203 17.3698C86.7435 17.2686 87.7851 17.18 88.7992 17.0409C87.7303 16.9966 86.0492 17.3762 86.04 16.2438C87.0999 16.2311 88.1688 16.2944 89.2286 16.2311C88.3972 16.1173 87.511 16.1742 86.7161 15.9654C86.6796 15.7504 86.5974 15.3265 86.5517 15.1114C88.8997 15.2886 91.0833 15.9844 93.0111 16.9017C94.2719 15.6745 96.5103 16.4083 98.164 15.7504C114.911 11.1956 132.471 8.29197 150.022 5.66666C161.041 4.05352 172.105 2.66812 183.187 1.4472Z" fill="#0F6BAC"/>
<path d="M93.5257 92.5867C93.0602 92.5867 92.6492 92.522 92.2926 92.3925C91.9459 92.2537 91.6785 92.0271 91.4903 91.7126C91.3021 91.3888 91.208 90.9587 91.208 90.4222V82.3608H92.7086V90.2141C92.7086 90.5101 92.7631 90.7413 92.872 90.9078C92.981 91.0651 93.1246 91.1715 93.3029 91.227C93.4812 91.2825 93.6743 91.3102 93.8823 91.3102H97.6709V92.5867H93.5257ZM111.134 92.67C110.293 92.67 109.619 92.5543 109.114 92.3231C108.619 92.0918 108.262 91.7033 108.044 91.1576C107.836 90.6026 107.732 89.8394 107.732 88.8682C107.732 87.8784 107.836 87.1107 108.044 86.5649C108.262 86.0099 108.619 85.6214 109.114 85.3994C109.609 85.1774 110.278 85.0664 111.12 85.0664C111.853 85.0664 112.442 85.1404 112.888 85.2884C113.343 85.4272 113.675 85.6815 113.883 86.0515C114.101 86.4123 114.21 86.9164 114.21 87.5639C114.21 88.0172 114.111 88.3779 113.913 88.6462C113.725 88.9144 113.452 89.1087 113.096 89.2289C112.749 89.3492 112.333 89.4093 111.848 89.4093H109.218C109.228 89.9458 109.292 90.376 109.411 90.6997C109.54 91.0142 109.763 91.2455 110.08 91.3935C110.406 91.5322 110.882 91.6016 111.506 91.6016H113.987V92.4341C113.561 92.4896 113.125 92.5405 112.68 92.5867C112.234 92.6422 111.719 92.67 111.134 92.67ZM109.203 88.5352H111.714C112.11 88.5352 112.402 88.4658 112.59 88.3271C112.779 88.1883 112.873 87.9339 112.873 87.5639C112.873 87.1939 112.813 86.9025 112.694 86.6898C112.585 86.477 112.402 86.3244 112.145 86.2319C111.887 86.1394 111.545 86.0932 111.12 86.0932C110.634 86.0932 110.248 86.1625 109.961 86.3013C109.683 86.44 109.485 86.6852 109.366 87.0367C109.257 87.3882 109.203 87.8877 109.203 88.5352ZM127.686 92.5867C127.151 92.5867 126.705 92.5081 126.349 92.3508C126.002 92.1843 125.745 91.9207 125.576 91.56C125.418 91.1992 125.343 90.7182 125.353 90.1169L125.413 86.3013H124.15V85.3994L125.442 85.1635L125.665 83.0823H126.839V85.1635H128.993V86.3013H126.839V90.1031C126.839 90.3898 126.869 90.6211 126.928 90.7968C126.988 90.9726 127.072 91.1067 127.181 91.1992C127.29 91.2917 127.409 91.3611 127.537 91.4073C127.666 91.4443 127.79 91.4675 127.909 91.4767L128.889 91.56V92.5867H127.686ZM139.067 85.5937L138.933 83.1239V82.1943H140.374V83.1239L140.255 85.5937H139.067ZM153.437 92.67C153.229 92.67 152.981 92.6654 152.694 92.6561C152.407 92.6468 152.11 92.6283 151.803 92.6006C151.506 92.5821 151.228 92.559 150.971 92.5312C150.723 92.5035 150.525 92.4711 150.376 92.4341V91.6016H153.719C154.007 91.6016 154.254 91.5831 154.462 91.5461C154.67 91.4998 154.829 91.4073 154.938 91.2686C155.056 91.1298 155.116 90.9263 155.116 90.6581V90.3528C155.116 90.0753 155.017 89.8579 154.819 89.7007C154.621 89.5434 154.294 89.4648 153.838 89.4648H152.679C152.214 89.4648 151.798 89.4093 151.431 89.2983C151.075 89.1781 150.792 88.9792 150.584 88.7017C150.386 88.4242 150.287 88.0496 150.287 87.5778V87.1754C150.287 86.7037 150.381 86.3152 150.57 86.0099C150.768 85.7047 151.08 85.478 151.506 85.33C151.932 85.1728 152.496 85.0942 153.199 85.0942C153.496 85.0942 153.823 85.108 154.18 85.1358C154.546 85.1543 154.903 85.182 155.25 85.219C155.596 85.256 155.874 85.2977 156.082 85.3439V86.1764H152.932C152.496 86.1764 152.159 86.2458 151.922 86.3845C151.694 86.5233 151.58 86.7869 151.58 87.1754V87.4529C151.58 87.6934 151.634 87.8784 151.743 88.0079C151.852 88.1374 152.006 88.2207 152.204 88.2577C152.412 88.2947 152.655 88.3132 152.932 88.3132H154.12C154.873 88.3132 155.443 88.4797 155.829 88.8127C156.215 89.1364 156.408 89.5943 156.408 90.1863V90.7552C156.408 91.2547 156.285 91.6432 156.037 91.9207C155.789 92.1982 155.443 92.3925 154.997 92.5035C154.561 92.6145 154.041 92.67 153.437 92.67ZM179.921 92.5867V84.4975C179.921 84.0905 179.986 83.7483 180.115 83.4708C180.253 83.1933 180.432 82.9759 180.649 82.8186C180.867 82.6521 181.11 82.5365 181.377 82.4718C181.655 82.3978 181.927 82.3608 182.195 82.3608C182.601 82.37 183.061 82.3793 183.576 82.3885C184.091 82.3885 184.626 82.3978 185.181 82.4163C185.745 82.4348 186.29 82.4671 186.815 82.5134V83.6511H182.566C182.2 83.6511 181.917 83.7436 181.719 83.9286C181.521 84.1136 181.422 84.3819 181.422 84.7334V87.106L186.147 87.1893V88.2716L181.422 88.3548V92.5867H179.921ZM197.501 83.9148C197.323 83.9148 197.234 83.8361 197.234 83.6789V82.5134C197.234 82.3469 197.323 82.2636 197.501 82.2636H198.601C198.68 82.2636 198.739 82.2868 198.779 82.333C198.819 82.3793 198.839 82.4394 198.839 82.5134V83.6789C198.839 83.8361 198.759 83.9148 198.601 83.9148H197.501ZM197.293 92.5867V85.1635H198.779V92.5867H197.293ZM212.555 92.67C212.347 92.67 212.099 92.6654 211.813 92.6561C211.525 92.6468 211.227 92.6283 210.921 92.6006C210.624 92.5821 210.346 92.559 210.089 92.5312C209.841 92.5035 209.643 92.4711 209.495 92.4341V91.6016H212.838C213.125 91.6016 213.373 91.5831 213.581 91.5461C213.789 91.4998 213.946 91.4073 214.056 91.2686C214.175 91.1298 214.234 90.9263 214.234 90.6581V90.3528C214.234 90.0753 214.135 89.8579 213.937 89.7007C213.738 89.5434 213.411 89.4648 212.957 89.4648H211.798C211.331 89.4648 210.915 89.4093 210.55 89.2983C210.193 89.1781 209.911 88.9792 209.703 88.7017C209.504 88.4242 209.406 88.0496 209.406 87.5778V87.1754C209.406 86.7037 209.499 86.3152 209.688 86.0099C209.886 85.7047 210.198 85.478 210.624 85.33C211.049 85.1728 211.614 85.0942 212.318 85.0942C212.615 85.0942 212.942 85.108 213.298 85.1358C213.664 85.1543 214.021 85.182 214.368 85.219C214.714 85.256 214.992 85.2977 215.2 85.3439V86.1764H212.05C211.614 86.1764 211.278 86.2458 211.04 86.3845C210.811 86.5233 210.698 86.7869 210.698 87.1754V87.4529C210.698 87.6934 210.752 87.8784 210.862 88.0079C210.97 88.1374 211.123 88.2207 211.322 88.2577C211.53 88.2947 211.773 88.3132 212.05 88.3132H213.239C213.991 88.3132 214.561 88.4797 214.947 88.8127C215.334 89.1364 215.527 89.5943 215.527 90.1863V90.7552C215.527 91.2547 215.402 91.6432 215.155 91.9207C214.907 92.1982 214.561 92.3925 214.115 92.5035C213.679 92.6145 213.159 92.67 212.555 92.67ZM226.134 92.5867V82H227.619V85.9683C227.967 85.7278 228.387 85.515 228.882 85.33C229.378 85.1358 229.888 85.0387 230.413 85.0387C230.987 85.0387 231.453 85.1497 231.809 85.3717C232.176 85.5937 232.443 85.8989 232.611 86.2874C232.781 86.6667 232.864 87.0968 232.864 87.5778V92.5867H231.378V87.7443C231.378 87.4575 231.314 87.2078 231.185 86.995C231.066 86.773 230.894 86.6019 230.665 86.4817C230.448 86.3614 230.185 86.3013 229.878 86.3013C229.581 86.3013 229.304 86.329 229.046 86.3845C228.799 86.44 228.561 86.5187 228.333 86.6204C228.105 86.7222 227.867 86.8378 227.619 86.9673V92.5867H226.134ZM244.019 83.9148C243.841 83.9148 243.752 83.8361 243.752 83.6789V82.5134C243.752 82.3469 243.841 82.2636 244.019 82.2636H245.119C245.199 82.2636 245.258 82.2868 245.297 82.333C245.337 82.3793 245.357 82.4394 245.357 82.5134V83.6789C245.357 83.8361 245.278 83.9148 245.119 83.9148H244.019ZM243.811 92.5867V85.1635H245.297V92.5867H243.811ZM256.295 92.5867V85.1635H257.483L257.781 85.9683C258.137 85.7278 258.559 85.515 259.043 85.33C259.539 85.1358 260.049 85.0387 260.574 85.0387C261.168 85.0387 261.643 85.1589 262 85.3994C262.367 85.6307 262.63 85.9405 262.787 86.329C262.946 86.7175 263.025 87.1384 263.025 87.5917V92.5867H261.539V87.7582C261.539 87.4622 261.475 87.2078 261.346 86.995C261.227 86.773 261.059 86.6019 260.841 86.4817C260.624 86.3614 260.357 86.3013 260.039 86.3013C259.742 86.3013 259.465 86.329 259.207 86.3845C258.96 86.44 258.722 86.5187 258.494 86.6204C258.266 86.7129 258.029 86.8285 257.781 86.9673V92.5867H256.295ZM275.949 96C275.443 96 274.993 95.9306 274.597 95.7919C274.21 95.6624 273.904 95.4589 273.675 95.1814C273.448 94.9132 273.334 94.5801 273.334 94.1824V93.8771C273.334 93.4609 273.458 93.1094 273.705 92.8226C273.963 92.5451 274.285 92.3323 274.671 92.1843C275.057 92.0363 275.458 91.9623 275.874 91.9623L276.275 92.4757C276.008 92.4757 275.755 92.5127 275.518 92.5867C275.29 92.67 275.102 92.7948 274.953 92.9613C274.815 93.1371 274.745 93.3591 274.745 93.6274V93.891C274.745 94.2795 274.885 94.5616 275.161 94.7374C275.449 94.9132 275.84 95.001 276.335 95.001H278.073C278.599 95.001 279.015 94.9039 279.321 94.7096C279.629 94.5246 279.782 94.2333 279.782 93.8355V93.5719C279.782 93.3499 279.728 93.1556 279.618 92.9891C279.52 92.8226 279.357 92.6931 279.128 92.6006C278.901 92.5173 278.589 92.4757 278.192 92.4757H275.993C275.29 92.4757 274.755 92.3416 274.389 92.0733C274.023 91.8051 273.839 91.4675 273.839 91.0605C273.839 90.6904 273.953 90.3945 274.181 90.1724C274.418 89.9412 274.751 89.7839 275.176 89.7007C274.819 89.5527 274.537 89.3631 274.329 89.1318C274.131 88.9006 273.993 88.6508 273.913 88.3826C273.834 88.1051 273.794 87.8276 273.794 87.55C273.794 86.9858 273.919 86.5279 274.166 86.1764C274.414 85.8249 274.77 85.5659 275.235 85.3994C275.711 85.2329 276.275 85.1497 276.929 85.1497H281.208V85.9405L279.589 86.0932C279.707 86.1764 279.837 86.2874 279.975 86.4262C280.114 86.5557 280.233 86.736 280.331 86.9673C280.431 87.1986 280.48 87.5038 280.48 87.8831C280.48 88.2808 280.386 88.6508 280.198 88.9931C280.019 89.3353 279.722 89.6128 279.306 89.8256C278.901 90.0383 278.346 90.1447 277.642 90.1447H276.335C275.959 90.1447 275.662 90.1956 275.443 90.2973C275.226 90.3991 275.117 90.5794 275.117 90.8385C275.117 91.0512 275.201 91.1992 275.369 91.2825C275.538 91.3657 275.717 91.4073 275.904 91.4073H278.415C279.019 91.4073 279.525 91.4813 279.93 91.6293C280.346 91.7773 280.658 92.004 280.866 92.3092C281.074 92.6145 281.178 93.0123 281.178 93.5025V93.7661C281.178 94.4691 280.931 95.0149 280.435 95.4034C279.951 95.8012 279.213 96 278.222 96H275.949ZM276.602 89.0763H277.479C277.925 89.0763 278.262 89.0162 278.489 88.8959C278.727 88.7664 278.89 88.5999 278.979 88.3964C279.069 88.1929 279.113 87.9663 279.113 87.7166C279.113 87.3465 279.049 87.0552 278.92 86.8424C278.792 86.6204 278.614 86.4632 278.385 86.3707C278.168 86.2689 277.901 86.218 277.583 86.218H276.751C276.246 86.218 275.85 86.3244 275.562 86.5372C275.286 86.7499 275.146 87.1153 275.146 87.6333C275.146 88.1421 275.275 88.5121 275.533 88.7433C275.791 88.9653 276.147 89.0763 276.602 89.0763Z" fill="#010F30"/>
<path d="M281.208 75H91.208V76H281.208V75Z" fill="#0F6BAC"/>
<path d="M91.208 68.6452L96.3268 24.887H104.779L114.897 58.4152L124.956 24.887H133.349L138.527 68.6452H130.016L126.206 36.4179L127.575 36.5361L118.945 68.6452H110.671L101.922 36.5361L103.41 36.477L99.7195 68.6452H91.208ZM150.732 69C148.311 69 146.347 68.2904 144.839 66.8712C143.331 65.452 142.577 63.4809 142.577 60.958V58.1196C142.577 55.7148 143.431 53.7438 145.137 52.2063C146.843 50.6294 149.502 49.841 153.113 49.841H161.267V47.6531C161.267 46.6675 161.088 45.8594 160.731 45.2286C160.374 44.5585 159.7 44.0854 158.708 43.8095C157.755 43.4941 156.287 43.3364 154.303 43.3364H144.72V38.251C146.268 37.7779 148.053 37.364 150.077 37.0092C152.14 36.6544 154.621 36.477 157.517 36.477C160.176 36.477 162.438 36.7924 164.303 37.4231C166.207 38.0539 167.636 39.138 168.588 40.6754C169.58 42.2129 170.076 44.3417 170.076 47.0618V68.6452H163.112L161.684 65.2746C161.406 65.59 160.93 65.9448 160.255 66.339C159.581 66.7332 158.747 67.1472 157.755 67.5808C156.803 67.975 155.712 68.3101 154.482 68.5861C153.291 68.862 152.041 69 150.732 69ZM155.196 62.9093C155.593 62.9093 156.029 62.8699 156.505 62.7911C157.021 62.6728 157.537 62.5545 158.053 62.4363C158.608 62.2786 159.104 62.1406 159.541 62.0223C160.017 61.8647 160.394 61.7267 160.672 61.6084C160.989 61.4901 161.188 61.4113 161.267 61.3719V53.9803L155.91 54.3351C154.363 54.4534 153.212 54.8476 152.458 55.5177C151.744 56.1879 151.387 57.0946 151.387 58.2378V59.5388C151.387 60.3272 151.545 60.9777 151.863 61.4901C152.22 62.0026 152.676 62.3771 153.232 62.6137C153.827 62.8108 154.482 62.9093 155.196 62.9093ZM176.671 68.6452V36.8909H183.457L185.48 41.7398C186.631 40.2812 187.921 39.0394 189.349 38.0145C190.817 36.9895 192.544 36.477 194.528 36.477C194.964 36.477 195.401 36.4967 195.837 36.5361C196.313 36.5756 196.75 36.6544 197.146 36.7727V45.7608C196.551 45.682 195.916 45.6229 195.242 45.5834C194.607 45.5046 193.992 45.4652 193.397 45.4652C192.246 45.4652 191.194 45.6032 190.242 45.8791C189.329 46.1156 188.476 46.4901 187.683 47.0026C186.929 47.4757 186.195 48.1064 185.48 48.8949V68.6452H176.671ZM202.911 32.2195C202.078 32.2195 201.661 31.8252 201.661 31.0368V25.2418C201.661 24.4139 202.078 24 202.911 24H209.696C210.054 24 210.331 24.1183 210.53 24.3548C210.728 24.5913 210.827 24.887 210.827 25.2418V31.0368C210.827 31.8252 210.45 32.2195 209.696 32.2195H202.911ZM201.84 68.6452V36.8909H210.649V68.6452H201.84ZM217.417 68.6452V36.8909H224.679L226.226 40.1432C227.417 39.1577 228.905 38.2904 230.691 37.5414C232.516 36.753 234.381 36.3587 236.286 36.3587C238.904 36.3587 240.928 36.8712 242.357 37.8962C243.785 38.9212 244.777 40.3009 245.333 42.0355C245.928 43.7306 246.226 45.6229 246.226 47.7122V68.6452H237.416V48.8357C237.416 47.8108 237.218 46.9632 236.821 46.293C236.464 45.6229 235.948 45.1104 235.274 44.7556C234.599 44.4008 233.786 44.2234 232.833 44.2234C232 44.2234 231.187 44.3219 230.393 44.5191C229.639 44.7162 228.905 44.9921 228.191 45.3469C227.516 45.7017 226.861 46.1156 226.226 46.5887V68.6452H217.417ZM266.506 68.9409C263.887 68.9409 261.645 68.6846 259.78 68.1721C257.915 67.6202 256.388 66.7135 255.197 65.452C254.047 64.1905 253.193 62.5151 252.638 60.4258C252.122 58.3364 251.864 55.7543 251.864 52.6794C251.864 49.4468 252.122 46.7858 252.638 44.6965C253.193 42.5677 254.047 40.912 255.197 39.7293C256.388 38.5072 257.915 37.6597 259.78 37.1866C261.685 36.6741 263.927 36.4179 266.506 36.4179C269.165 36.4179 271.427 36.6741 273.292 37.1866C275.157 37.6991 276.665 38.5664 277.815 39.7884C279.006 40.9711 279.859 42.6268 280.375 44.7556C280.93 46.8449 281.208 49.4862 281.208 52.6794C281.208 55.8331 280.95 58.4744 280.434 60.6032C279.918 62.6925 279.085 64.3482 277.934 65.5703C276.784 66.7924 275.256 67.6597 273.351 68.1721C271.486 68.6846 269.205 68.9409 266.506 68.9409ZM266.506 61.9632C267.578 61.9632 268.471 61.8647 269.185 61.6675C269.939 61.4704 270.534 61.0762 270.97 60.4849C271.447 59.8541 271.804 58.908 272.042 57.6465C272.28 56.385 272.399 54.7293 272.399 52.6794C272.399 50.59 272.28 48.9343 272.042 47.7122C271.804 46.4507 271.447 45.5243 270.97 44.933C270.534 44.3022 269.939 43.8883 269.185 43.6912C268.471 43.4941 267.578 43.3955 266.506 43.3955C265.475 43.3955 264.582 43.4941 263.828 43.6912C263.114 43.8883 262.518 44.3022 262.042 44.933C261.566 45.5243 261.209 46.4507 260.971 47.7122C260.772 48.9343 260.673 50.59 260.673 52.6794C260.673 54.7293 260.772 56.385 260.971 57.6465C261.209 58.908 261.566 59.8541 262.042 60.4849C262.518 61.0762 263.114 61.4704 263.828 61.6675C264.582 61.8647 265.475 61.9632 266.506 61.9632Z" fill="#010F30"/>
<path d="M81.708 22.6729C83.1724 21.9215 84.5404 21.0094 85.9726 20.2002C84.7523 21.2985 83.3393 22.3132 81.708 22.6729Z" fill="white"/>
<path d="M56.2157 22.9684C56.2735 21.5875 57.7828 21.0352 58.9774 21.1765C58.2709 21.6196 57.2626 22.0114 57.269 23.0069C57.3011 24.0795 58.4957 24.4327 59.3563 24.6254C58.136 25.5824 56.0294 24.5869 56.2157 22.9684Z" fill="#ECF5FB"/>
<path d="M30.6992 28.0422C25.3813 30.425 20.3973 33.7262 16.5438 38.1321C13.326 41.8444 10.8148 46.3081 9.88994 51.17C10.8019 49.5451 11.4121 47.7532 12.4847 46.2117C16.9163 38.8065 23.5444 32.8848 31.046 28.7037C31.9259 28.1899 33.0113 27.9266 33.6343 27.0659C32.5938 27.1815 31.6433 27.6311 30.6992 28.0422ZM56.2162 22.9683C56.0299 24.5868 58.1365 25.5823 59.3633 24.6254C58.5026 24.4327 57.308 24.0794 57.2759 23.0069C57.2631 22.0049 58.2778 21.6196 58.9843 21.1764C57.7833 21.0351 56.274 21.5875 56.2162 22.9683ZM66.5694 13.5592C69.9862 13.2188 73.5251 12.5059 76.8905 13.5335C77.8154 13.8097 79.0293 14.5162 78.7531 15.6658C78.6118 18.0358 76.0235 18.9157 75.1243 20.8874C73.9682 22.9812 73.7435 25.4089 73.7049 27.7532C72.8764 27.7146 71.8938 27.6889 71.4056 26.899C70.3266 25.2419 70.956 23.1995 71.0973 21.3755C69.7229 22.9105 69.3311 25.1327 69.633 27.1237C69.8 28.4275 70.9496 29.5451 72.3048 29.4359C75.4455 29.3588 78.3228 27.9073 81.1744 26.7384C80.59 29.0505 78.7338 30.7397 76.8456 32.0499C74.5977 33.45 71.9965 34.529 69.3054 34.3877C68.2842 34.3492 67.3787 33.8418 66.7107 33.0839C66.7171 32.0306 66.5758 30.9773 66.6272 29.924C66.7043 27.31 67.7191 24.8694 68.3549 22.371C65.3877 26.7512 65.2592 32.2875 63.0049 36.9824C62.4911 38.0293 61.7011 38.9349 60.7377 39.59C59.4532 39.8983 57.9117 39.9818 56.8649 39.012C55.6767 37.9458 55.5482 36.2182 55.773 34.741C56.1198 32.8591 56.8456 30.9388 58.3164 29.6414C57.9824 31.048 57.5328 32.538 58.0145 33.9702C58.1558 34.5419 58.7595 34.7602 59.2798 34.8758C60.3074 34.9401 60.8726 33.8932 61.2065 33.0775C61.8873 31.1893 61.9901 29.1533 62.7351 27.2779C63.3196 25.5952 64.1609 24.0216 64.7518 22.3453C63.2746 23.2702 62.2277 24.696 60.8405 25.73C59.5302 26.7577 57.9374 27.5155 56.2483 27.5669C55.2464 27.5219 54.5977 26.6742 54.0389 25.9548C51.3928 26.9889 49.2155 28.9478 47.3594 31.0608C45.9593 32.5316 45.2335 34.4584 44.5463 36.3338C44.4243 33.9702 44.9895 31.626 46.0877 29.5386C43.1012 31.6774 41.913 35.4539 41.9965 38.9991C40.0698 38.7936 38.1044 38.6074 36.1969 39.012C33.3003 39.6414 30.6093 40.9516 28.0338 42.3903C26.4281 43.2702 25.028 44.4776 23.4352 45.3704C25.1629 42.1719 28.0787 39.8533 30.757 37.4834C27.6741 39.1276 24.7454 41.0801 22.2021 43.4757C17.7512 47.3485 14.0261 52.1462 11.7653 57.6183C9.41466 63.0133 8.4577 68.9477 8.70175 74.818C8.63111 77.2971 9.33759 79.7056 9.42109 82.1655C2.02867 71.1186 -1.21475 57.3742 0.410174 44.1822C0.699192 42.0435 1.09097 39.9047 1.73965 37.8431C2.05436 36.6998 2.94068 35.8585 3.78846 35.0942C5.77305 33.4693 8.11087 32.3453 10.5129 31.4847C8.26502 31.3241 6.05564 31.8636 3.92976 32.5252C4.52064 31.6709 5.40696 31.1122 6.26116 30.5727C10.0698 28.2927 14.5977 27.4641 18.9908 27.6311C18.5283 28.3312 17.8989 28.8964 17.3145 29.5001C12.5039 34.6061 8.49623 40.5984 6.2997 47.2971C5.44549 50.0396 4.68763 52.8848 4.81608 55.7621C6.1584 46.4301 11.4442 38.0165 18.3292 31.7352C22.4333 27.8945 27.1667 24.7666 32.1828 22.2426C37.5585 19.4552 43.4352 17.811 49.2798 16.3145C54.9573 14.9208 60.7634 14.118 66.5694 13.5592Z" fill="#010F30"/>
<path d="M82.0159 24.7346C83.5124 24.7539 85.0217 25.4925 85.6575 26.899C86.8714 29.0249 85.8823 31.5618 84.5849 33.3987C82.2535 36.6614 78.9459 39.1534 75.33 40.8361C74.8804 41.0673 74.373 41.2536 74.0198 41.6389C70.6672 45.2934 66.4603 48.6203 61.4379 49.4488C61.2259 53.418 60.1084 57.7018 56.8971 60.3094C53.7564 62.962 49.357 63.3152 45.4392 62.7051C47.0577 59.802 49.2414 57.2458 50.8149 54.3236C49.2606 55.3126 47.5329 55.9934 45.9851 57.0018C41.515 59.7828 37.443 63.5079 35.118 68.2991C33.5252 71.5233 32.9793 75.2163 33.4096 78.7808C33.917 77.9331 34.0455 76.9311 34.3987 76.0255C35.2529 73.6171 36.1906 71.1765 37.7449 69.1148C42.6453 74.5355 49.8451 77.7018 57.1476 77.7404C54.0583 76.5458 50.8406 75.319 48.3486 73.0776C51.0782 73.9703 54.3987 73.1225 56.1328 70.7718C57.3659 69.179 58.5606 67.5413 59.9157 66.0448C62.793 62.7821 66.5888 59.6286 71.181 59.6864C69.5432 64.0474 68.3293 68.6267 68.2972 73.3088C68.1174 78.4597 69.5239 83.707 72.5747 87.8945C74.784 90.8489 77.6935 93.2445 80.9241 94.9979C80.9562 95.0878 81.014 95.2612 81.0397 95.3447C75.3621 96.9761 69.2221 96.3402 63.7372 94.3043C59.0551 92.6729 55.0345 89.6479 50.4167 87.8752C48.3101 87.0788 46.0301 85.9549 43.7372 86.6164C44.5914 88.3312 46.1649 89.5451 47.2054 91.1379C41.3672 92.5059 34.7969 92.0564 29.7231 88.6267C29.312 88.312 28.9138 88.7937 28.6312 89.0506C25.6254 91.8508 24.1868 95.8521 23.1335 99.7249C21.7783 98.6203 20.847 97.0852 20.0442 95.5567C17.5265 90.3865 16.5182 84.4648 17.3274 78.7616C18.1752 72.4995 21.3929 66.732 25.8695 62.3325C27.3917 60.9067 28.8881 59.3781 30.7378 58.3891C25.7539 64.118 21.6948 71.3049 21.7783 79.0955C23.5766 74.0923 25.9401 69.2625 29.145 65.0043C34.2317 58.1 41.2581 52.7051 49.1001 49.2818C46.3576 47.7853 43.8849 45.4539 43.1784 42.3004C45.0345 43.6941 47.0191 44.9658 49.2478 45.6787C53.1591 46.9311 57.4687 46.7063 61.3158 45.3383C63.5766 44.5484 65.8117 43.585 67.7641 42.1848C65.2529 42.6087 62.6774 42.6858 60.1662 42.1977C61.4507 41.8766 62.7738 41.7417 64.0647 41.4462C69.5882 40.2131 74.9253 37.5862 78.7661 33.3602C80.2176 31.7096 81.7333 29.9562 82.3049 27.7854C82.6132 26.7449 82.3113 25.7109 82.0159 24.7346Z" fill="#010F30"/>
<path d="M32.17 47.1044C34.1739 46.263 36.2548 45.6208 38.2843 44.8308C36.2612 46.6099 34.0775 48.1834 32.0159 49.9111C34.8611 48.4724 38.1752 46.5456 41.4122 47.9072C41.2965 48.4082 41.0332 48.8578 40.6671 49.2174C38.7725 51.2663 36.9228 53.3986 34.6427 55.0235C33.6151 55.7814 32.3756 56.2309 31.1167 56.4043C27.5971 56.5521 23.917 56.2502 20.8213 54.4262C21.7205 53.3472 22.7994 52.448 23.8528 51.5296C26.486 49.8019 29.2477 48.2797 32.17 47.1044Z" fill="#010F30"/>
<path d="M60.8466 25.7299C62.2339 24.6959 63.2808 23.2636 64.758 22.3452C64.1671 24.0215 63.3257 25.5951 62.7413 27.2778C61.5916 27.3548 60.686 28.1448 59.607 28.466C57.1536 29.2046 54.5653 29.1789 52.0348 29.0055C50.8273 29.5578 49.9795 30.624 49.074 31.5552C48.1748 32.4608 47.7509 33.6875 47.2435 34.8243C46.4856 36.5327 46.6719 38.4467 46.6655 40.2643C46.6269 42.3388 47.7894 44.272 49.2538 45.6721C47.0251 44.9592 45.047 43.6875 43.1844 42.2938C43.1266 41.9663 43.0688 41.6451 43.0174 41.3176C42.388 41.1634 41.7265 40.9772 41.0842 41.1763C36.3572 42.3259 32.0091 44.7023 28.1941 47.6888C26.7683 48.999 24.9956 49.9303 23.8588 51.5424C22.8119 52.4608 21.7265 53.3535 20.8273 54.439C23.923 56.2694 27.6032 56.5648 31.1228 56.4171C29.7162 57.5732 27.8665 57.7916 26.1453 58.1191C23.7817 58.6137 21.4632 57.5282 19.0997 57.6631C18.1042 59.0761 16.8196 60.29 16.0361 61.8442C14.7773 64.2912 13.4157 66.7126 12.6835 69.3779C11.9064 72.4929 10.7567 75.5372 10.4677 78.7678C10.3521 80.0908 9.89608 81.3497 9.69698 82.6599C9.62633 82.5828 9.49145 82.4287 9.42723 82.3516V82.1782C9.34373 79.7119 8.64367 77.3034 8.70789 74.8307C8.46384 68.9605 9.4208 63.0324 11.7715 57.631C14.0322 52.1525 17.7573 47.3613 22.2082 43.4884C24.758 41.0864 27.6867 39.1403 30.7631 37.4961C28.0849 39.8661 25.1755 42.1846 23.4413 45.3831C25.0342 44.4839 26.4343 43.2829 28.0399 42.403C30.6154 40.9579 33.3065 39.6541 36.2031 39.0247C38.1106 38.6201 40.0823 38.8063 42.0027 39.0119C41.9192 35.473 43.1138 31.6901 46.0939 29.5514C44.9956 31.6387 44.4304 33.983 44.5524 36.3465C45.2397 34.4711 45.9654 32.5443 47.3655 31.0735C49.2217 28.9669 51.3925 27.008 54.0451 25.9676C54.5974 26.6869 55.2525 27.5347 56.2544 27.5796C57.9372 27.5154 59.5364 26.764 60.8466 25.7299Z" fill="#0F6BAC"/>
<path d="M63.0109 36.9825C65.2652 32.2876 65.3937 26.7513 68.3609 22.3711C67.7315 24.8695 66.7167 27.3165 66.6332 29.9241C66.5818 30.9774 66.7231 32.0307 66.7167 33.084C66.2671 34.9209 65.9717 36.8284 65.2138 38.5689C64.0835 41.0994 60.5382 41.7288 58.3545 40.2195C58.9582 39.5323 60.0179 40.0268 60.7373 39.5901C61.7007 38.9414 62.4971 38.0294 63.0109 36.9825Z" fill="#37AFE3"/>
<path d="M30.6989 28.0421C31.643 27.6375 32.5936 27.1814 33.634 27.0723C33.011 27.9265 31.9256 28.1962 31.0457 28.71C23.5441 32.8911 16.9096 38.8128 12.4844 46.218C11.4118 47.7595 10.8017 49.545 9.88965 51.1763C10.8145 46.3144 13.3257 41.8571 16.5435 38.1384C20.397 33.7261 25.381 30.4249 30.6989 28.0421Z" fill="#0F6BAC"/>
</g>
</g>
<defs>
<clipPath id="clip0_1_15530">
<rect width="282" height="100" fill="white"/>
</clipPath>
</defs>
</svg>
