<svg width="50" height="47" viewBox="0 0 50 47" fill="none" xmlns="http://www.w3.org/2000/svg">
<path d="M22.9161 41.9817C22.7696 41.9817 22.6231 41.9329 22.4864 41.845C20.4848 40.4094 16.706 39.511 12.6149 39.511C8.52367 39.511 4.74493 40.4094 2.74327 41.845C2.41129 42.0793 1.96214 42.011 1.71804 41.679C1.47393 41.3469 1.56181 40.8977 1.88403 40.6536C4.15908 39.0227 8.16239 38.0461 12.6051 38.0461C17.0478 38.0461 21.0609 39.0227 23.3262 40.6536C23.6581 40.8879 23.7265 41.3469 23.4922 41.679C23.3652 41.8743 23.1406 41.9817 22.9161 41.9817Z" fill="#37AFE3"/>
<path d="M41.6151 10.927C41.332 10.927 41.0586 10.7609 40.9414 10.4777C40.7852 10.1066 40.9512 9.67695 41.3222 9.5207L48.1962 6.58125C48.3329 6.52266 48.4403 6.41523 48.4891 6.27852C48.5477 6.1418 48.5379 5.99531 48.4891 5.85859L46.9659 2.29414C46.8487 2.01094 46.5265 1.88398 46.2434 2.00117L44.8373 2.60664C44.4663 2.76289 44.0367 2.59687 43.8804 2.22578C43.7242 1.85469 43.8902 1.425 44.2612 1.26875L45.6673 0.663281C46.6925 0.223828 47.874 0.702344 48.3134 1.72773L49.8366 5.29219C50.0514 5.79023 50.0514 6.33711 49.8561 6.83516C49.6511 7.3332 49.2703 7.72383 48.7723 7.93867L41.8983 10.8781C41.8007 10.9074 41.703 10.927 41.6151 10.927Z" fill="#37AFE3"/>
<path d="M39.0772 5.00905C38.794 5.00905 38.5205 4.84303 38.4033 4.5696C38.2471 4.1985 38.4131 3.76881 38.7842 3.61256L41.1084 2.6067C41.4795 2.45045 41.9092 2.61647 42.0654 2.98756C42.2217 3.35866 42.0557 3.78835 41.6846 3.9446L39.3604 4.94069C39.2725 4.98952 39.1748 5.00905 39.0772 5.00905Z" fill="#37AFE3"/>
<path d="M26.5584 15.3312C26.2654 15.3312 26.0017 15.1555 25.8845 14.8918L24.8298 12.4211C24.7127 12.1476 24.7713 11.8254 24.9861 11.6203L27.6228 8.96406C27.6912 8.8957 27.7595 8.84687 27.8474 8.80781C28.2185 8.64179 28.6482 8.8078 28.8142 9.1789C28.9412 9.47187 28.863 9.8039 28.6482 10.009L26.3728 12.2941L27.0466 13.8566L30.2986 13.7883C30.699 13.7785 31.0408 14.1008 31.0505 14.5012C31.0603 14.9016 30.738 15.2434 30.3377 15.2531L26.5974 15.3312C26.5681 15.3312 26.5681 15.3312 26.5584 15.3312Z" fill="#37AFE3"/>
<path d="M8.71937 22.8508C7.90894 22.8508 7.14734 22.3821 6.80559 21.5911C6.35644 20.5364 6.84465 19.3157 7.89918 18.8665L25.2208 11.4544C25.5919 11.2981 26.0215 11.4641 26.1777 11.8352L27.2323 14.3059C27.3104 14.4817 27.3104 14.6868 27.242 14.8626C27.1737 15.0383 27.0272 15.1848 26.8514 15.263L9.5298 22.6848C9.26616 22.7923 8.99277 22.8508 8.71937 22.8508ZM25.1134 13.0852L8.47527 20.2044C8.16281 20.3411 8.01635 20.7024 8.15305 21.0051C8.28975 21.3176 8.65102 21.4641 8.95371 21.3274L25.6016 14.2083L25.1134 13.0852Z" fill="#37AFE3"/>
<path d="M34.8872 17.0599C33.9499 17.0599 33.0027 16.8841 32.1044 16.5227C30.2492 15.7806 28.7944 14.3548 28.0132 12.5188C27.3395 10.9466 27.2321 9.179 27.691 7.54814C28.1499 5.93681 29.1459 4.50126 30.4933 3.5247C30.8253 3.29032 31.2745 3.35868 31.5186 3.69071C31.7529 4.02275 31.6846 4.47196 31.3526 4.7161C29.0678 6.37626 28.2476 9.35478 29.3607 11.9524C29.9954 13.427 31.1671 14.5696 32.6512 15.1751C34.1451 15.7708 35.7758 15.7513 37.2599 15.1263C40.3063 13.8177 41.7319 10.2825 40.4235 7.22587C39.3104 4.62821 36.5959 3.16337 33.8132 3.67118C33.4128 3.74931 33.032 3.48564 32.9637 3.08525C32.8953 2.68485 33.159 2.304 33.5495 2.23564C35.1899 1.9329 36.9084 2.19657 38.3926 2.98759C39.8962 3.78837 41.0972 5.0872 41.771 6.65946C43.3918 10.4485 41.6245 14.8626 37.836 16.4837C36.8889 16.8548 35.8929 17.0599 34.8872 17.0599Z" fill="#37AFE3"/>
<path d="M33.1109 13.9836C32.7398 13.8273 32.5543 13.4074 32.7105 13.0265C32.8668 12.6555 33.2866 12.4699 33.6674 12.6262C34.0385 12.7726 34.224 13.2023 34.0678 13.5832C33.9506 13.8664 33.6772 14.0422 33.3843 14.0422C33.2866 14.0422 33.1987 14.0226 33.1109 13.9836ZM35.7863 13.5637C35.63 13.1926 35.8058 12.7629 36.1768 12.6066C36.5479 12.4504 36.9775 12.6262 37.1337 12.9973C37.2899 13.3683 37.1142 13.798 36.7431 13.9543C36.6455 13.9933 36.5479 14.0129 36.46 14.0129C36.1768 14.0129 35.9132 13.8469 35.7863 13.5637ZM30.5038 11.4348C30.3476 11.0637 30.5234 10.634 30.8944 10.4777C31.2654 10.3215 31.6951 10.4875 31.8513 10.8683C32.0075 11.2394 31.8318 11.6691 31.4607 11.8254C31.3631 11.8644 31.2654 11.884 31.1776 11.884C30.8944 11.884 30.621 11.718 30.5038 11.4348ZM38.3542 11.757C37.9832 11.6105 37.7977 11.1808 37.9539 10.8C38.1004 10.4289 38.53 10.2433 38.9108 10.3996C39.2818 10.5558 39.4673 10.9758 39.3111 11.3566C39.1939 11.6398 38.9206 11.8156 38.6276 11.8156C38.53 11.8156 38.4421 11.7961 38.3542 11.757ZM30.8749 8.7492C30.5038 8.60272 30.3183 8.17303 30.4745 7.79217C30.621 7.41131 31.0506 7.23553 31.4314 7.38202C31.8025 7.5285 31.988 7.95819 31.8415 8.33905C31.7244 8.62225 31.451 8.79803 31.158 8.79803C31.0604 8.79803 30.9627 8.7785 30.8749 8.7492ZM37.9246 8.28045C37.7684 7.90936 37.9441 7.47967 38.3152 7.32342C38.6862 7.16717 39.1158 7.34295 39.2721 7.71405C39.4283 8.08514 39.2525 8.51483 38.8815 8.67108C38.7839 8.71014 38.696 8.72967 38.5983 8.72967C38.3152 8.72967 38.0418 8.56366 37.9246 8.28045ZM32.6324 6.15155C32.4762 5.78045 32.652 5.35077 33.023 5.19452H33.0328C33.4038 5.03827 33.8334 5.21405 33.9896 5.58514C34.1459 5.95624 33.9701 6.38592 33.5991 6.54217C33.5991 6.54217 33.5893 6.54217 33.5795 6.55194C33.4917 6.591 33.394 6.61053 33.2964 6.61053C33.023 6.60077 32.7594 6.42499 32.6324 6.15155ZM36.128 6.51288C35.757 6.35663 35.5714 5.9367 35.7277 5.55584C35.8839 5.18475 36.3038 4.9992 36.6846 5.15545C37.0556 5.3117 37.2411 5.73163 37.0849 6.11249C36.9677 6.39569 36.6943 6.57147 36.4014 6.57147C36.3135 6.57147 36.2159 6.55194 36.128 6.51288Z" fill="#37AFE3"/>
<path d="M32.6816 6.9231C31.2949 6.9231 30.1621 5.79028 30.1621 4.40356C30.1621 3.01685 31.2949 1.88403 32.6816 1.88403C34.0684 1.88403 35.2012 3.01685 35.2012 4.40356C35.2012 5.79028 34.0684 6.9231 32.6816 6.9231ZM32.6816 3.35864C32.1055 3.35864 31.627 3.82739 31.627 4.41333C31.627 4.99927 32.0957 5.46802 32.6816 5.46802C33.2676 5.46802 33.7363 4.99927 33.7363 4.41333C33.7363 3.82739 33.2676 3.35864 32.6816 3.35864Z" fill="#37AFE3"/>
<path d="M12.6155 38.0559C12.2151 38.0559 11.8831 37.7239 11.8831 37.3235V20.7024L10.9651 18.3196C10.8186 17.9387 11.0041 17.5188 11.385 17.3723C11.7659 17.2258 12.1858 17.4114 12.3323 17.7922L13.2991 20.302C13.3284 20.3899 13.3479 20.4778 13.3479 20.5657V37.3235C13.3479 37.7239 13.0256 38.0559 12.6155 38.0559Z" fill="#37AFE3"/>
<path d="M32.6803 37.0696C30.5615 37.0696 28.5989 36.1125 27.2905 34.4426C26.7534 33.759 26.7534 32.802 27.2905 32.1086C28.5989 30.4387 30.5615 29.4817 32.6803 29.4817C35.1213 29.4817 37.3866 30.7903 38.6169 32.9094C38.7438 33.134 38.7438 33.4172 38.6169 33.6418C37.3964 35.7512 35.1213 37.0696 32.6803 37.0696ZM32.6803 30.9465C31.0106 30.9465 29.4679 31.6985 28.4426 33.0168C28.3255 33.1731 28.3255 33.3879 28.4426 33.5344C29.4679 34.8528 31.0204 35.6047 32.6803 35.6047C34.4476 35.6047 36.1173 34.7258 37.1132 33.2805C36.1173 31.8254 34.4476 30.9465 32.6803 30.9465Z" fill="#37AFE3"/>
<path d="M31.0215 34.0032C30.6211 34.0032 30.2891 33.6711 30.2891 33.2708V33.2219C30.2891 32.8215 30.6211 32.4895 31.0215 32.4895C31.4219 32.4895 31.7539 32.8215 31.7539 33.2219V33.2708C31.7539 33.6809 31.4219 34.0032 31.0215 34.0032Z" fill="#37AFE3"/>
<path d="M40.4156 37.1672C39.566 37.1672 38.736 36.8352 38.1207 36.2199C37.3492 35.4485 37.0172 34.3352 37.2418 33.2805C37.027 32.216 37.359 31.1125 38.1207 30.341C38.9313 29.5305 40.1324 29.2082 41.2555 29.5012C41.5094 29.5695 41.7047 29.7649 41.7731 30.0188C42.066 31.132 41.7535 32.3332 40.9332 33.1535C40.8844 33.2024 40.8453 33.2414 40.7965 33.2805C40.8453 33.3195 40.8942 33.3684 40.9332 33.4074C41.7438 34.218 42.066 35.4192 41.7731 36.5422C41.7047 36.7961 41.5094 36.9914 41.2555 37.0598C40.9723 37.1281 40.6891 37.1672 40.4156 37.1672ZM38.6481 33.6516C38.5602 34.2082 38.7457 34.7844 39.1461 35.1848C39.4781 35.5168 39.9371 35.7024 40.4059 35.7024C40.4059 35.2336 40.2203 34.7844 39.8883 34.4426C39.6637 34.218 39.3903 34.0617 39.0875 33.9836C38.902 33.9348 38.7457 33.8078 38.6481 33.6516ZM40.4059 30.8488C39.9371 30.8488 39.4879 31.0344 39.1461 31.3664C38.7457 31.7668 38.5602 32.343 38.6481 32.8996C38.7457 32.7434 38.902 32.6164 39.0875 32.5676C39.3903 32.4895 39.6637 32.3332 39.8883 32.1086C40.2203 31.7668 40.4059 31.3176 40.4059 30.8488Z" fill="#37AFE3"/>
<path d="M39.2822 34.0032H37.9834C37.583 34.0032 37.251 33.6711 37.251 33.2708C37.251 32.8704 37.583 32.5383 37.9834 32.5383H39.2822C39.6826 32.5383 40.0146 32.8704 40.0146 33.2708C40.0146 33.6711 39.6826 34.0032 39.2822 34.0032Z" fill="#37AFE3"/>
<path d="M15.5654 44.2961C15.5166 44.2961 15.4678 44.2961 15.4189 44.2864C15.0186 44.2083 14.7646 43.8274 14.8428 43.427C14.9111 43.0852 14.9404 42.7434 14.9404 42.3918C14.9404 40.7317 14.1885 39.179 12.8701 38.1536C12.7139 38.0364 12.499 38.0364 12.3525 38.1536C11.0439 39.1887 10.2822 40.7317 10.2822 42.3918C10.2822 42.7434 10.3115 43.095 10.3799 43.427C10.458 43.8274 10.2041 44.2083 9.80371 44.2864C9.40332 44.3645 9.02246 44.1106 8.94434 43.7102C8.85644 43.2805 8.81738 42.8313 8.81738 42.3918C8.81738 40.2727 9.77441 38.3098 11.4443 37.0012C12.1279 36.4641 13.085 36.4641 13.7783 37.0012C15.4482 38.3098 16.4053 40.2825 16.4053 42.3918C16.4053 42.8411 16.3662 43.2805 16.2783 43.7102C16.2197 44.052 15.9072 44.2961 15.5654 44.2961Z" fill="#37AFE3"/>
<path d="M12.6641 41.4543H12.6152C12.2148 41.4543 11.8828 41.1223 11.8828 40.7219C11.8828 40.3215 12.2148 39.9895 12.6152 39.9895H12.6641C13.0645 39.9895 13.3965 40.3215 13.3965 40.7219C13.3965 41.1223 13.0742 41.4543 12.6641 41.4543Z" fill="#37AFE3"/>
<path d="M40.6285 46.0344C40.2379 46.0344 39.9157 45.7317 39.8961 45.3411C39.8766 44.9407 40.1793 44.5891 40.5894 44.5696C42.1321 44.4817 43.5675 43.7297 44.5244 42.509C44.6415 42.3528 44.6415 42.1379 44.5244 41.9915C43.4991 40.6731 41.9466 39.9211 40.2867 39.9211C38.5194 39.9211 36.8497 40.8 35.8538 42.2454C36.3322 42.9485 36.9766 43.5247 37.7285 43.925C38.08 44.1204 38.2167 44.5598 38.0214 44.9211C37.8261 45.2727 37.3867 45.4094 37.0255 45.2141C35.9124 44.6086 34.9848 43.7102 34.3501 42.6165C34.2231 42.3918 34.2231 42.1086 34.3501 41.884C35.5706 39.7747 37.8457 38.4563 40.2867 38.4563C42.4055 38.4563 44.3681 39.4133 45.6765 41.0833C46.2136 41.7668 46.2136 42.7239 45.6765 43.4172C44.456 44.97 42.6301 45.927 40.6675 46.0344C40.6577 46.0344 40.6382 46.0344 40.6285 46.0344Z" fill="#37AFE3"/>
<path d="M41.957 42.9875C41.5566 42.9875 41.2246 42.6555 41.2246 42.2551V42.2063C41.2246 41.8059 41.5566 41.4739 41.957 41.4739C42.3574 41.4739 42.6895 41.8059 42.6895 42.2063V42.2551C42.6895 42.6555 42.3574 42.9875 41.957 42.9875Z" fill="#37AFE3"/>
<path d="M32.5638 46.1419C32.2806 46.1419 32.0072 46.1029 31.7337 46.0345C31.4798 45.9661 31.2845 45.7708 31.2161 45.5169C30.9232 44.4036 31.2357 43.2025 32.056 42.3822C32.1048 42.3333 32.1439 42.2943 32.1927 42.2552C32.1439 42.2161 32.095 42.1673 32.056 42.1283C31.2454 41.3177 30.9232 40.1165 31.2161 38.9935C31.2845 38.7396 31.4798 38.5443 31.7337 38.4759C32.847 38.1829 34.0482 38.4954 34.8685 39.3158C35.64 40.0872 35.972 41.2005 35.7474 42.2552C35.9622 43.3197 35.6302 44.4232 34.8685 45.1947C34.2435 45.8099 33.4134 46.1419 32.5638 46.1419ZM34.3216 42.6263C34.224 42.7825 34.0677 42.9095 33.8822 42.9583C33.5794 43.0365 33.306 43.1927 33.0814 43.4173C32.7493 43.7493 32.5638 44.2083 32.5638 44.6771C33.0325 44.6771 33.4818 44.4915 33.8236 44.1595C34.224 43.7591 34.4095 43.1829 34.3216 42.6263ZM32.5638 39.8236C32.5638 40.2923 32.7493 40.7415 33.0814 41.0833C33.306 41.3079 33.5794 41.4642 33.8822 41.5423C34.0677 41.5911 34.224 41.7181 34.3216 41.8743C34.4095 41.3177 34.224 40.7415 33.8236 40.3411C33.4818 40.0091 33.0325 39.8236 32.5638 39.8236Z" fill="#37AFE3"/>
<path d="M34.9854 42.9875H33.6865C33.2861 42.9875 32.9541 42.6555 32.9541 42.2551C32.9541 41.8547 33.2861 41.5227 33.6865 41.5227H34.9854C35.3857 41.5227 35.7178 41.8547 35.7178 42.2551C35.7178 42.6555 35.3955 42.9875 34.9854 42.9875Z" fill="#37AFE3"/>
<path d="M12.6153 44.4524C11.5901 44.4524 10.5746 44.4036 9.58842 44.2961C3.85685 43.6809 0 41.4641 0 38.7786C0 37.1282 1.41581 35.634 4.00331 34.5793C4.37435 34.4231 4.80398 34.6086 4.9602 34.9797C5.11643 35.3508 4.93091 35.7805 4.55987 35.9368C2.58751 36.7375 1.46463 37.7727 1.46463 38.7786C1.46463 40.595 5.02855 42.3333 9.74465 42.8411C10.6722 42.9387 11.6389 42.9875 12.6153 42.9875C13.5917 42.9875 14.5584 42.9387 15.486 42.8411C20.2118 42.343 23.7758 40.595 23.7758 38.7786C23.7758 36.7864 19.1964 34.5696 12.6251 34.5696C10.8968 34.5696 9.23691 34.7258 7.68441 35.0286C7.28408 35.1067 6.90327 34.8528 6.82516 34.4524C6.74705 34.052 7.00092 33.6711 7.40125 33.593C9.04163 33.2708 10.7992 33.1047 12.6251 33.1047C15.8961 33.1047 18.9816 33.6418 21.3152 34.6086C23.8539 35.6633 25.2502 37.1477 25.2502 38.7786C25.2502 41.4739 21.3933 43.6809 15.652 44.2961C14.6658 44.3938 13.6503 44.4524 12.6153 44.4524Z" fill="#37AFE3"/>
</svg>
