<svg width="50" height="50" viewBox="0 0 50 50" fill="none" xmlns="http://www.w3.org/2000/svg">
<path d="M13.8246 17.6099L12.0543 14.8893C11.9219 14.5897 11.7437 14.3172 11.5335 14.0949C11.4565 13.9923 11.3624 13.9092 11.2574 13.8471C10.9195 13.5918 10.5282 13.4606 10.1263 13.5244C9.08586 13.6894 7.93922 14.7797 8.06977 16.6289C8.26426 19.1706 8.7177 20.686 10.0426 23.013C10.618 23.8657 11.2468 24.1794 11.8596 24.2219L13.1302 28.3314L12.0118 34.1651C11.8562 34.9768 12.3881 35.761 13.1999 35.9167C13.2951 35.9349 13.3898 35.9437 13.4833 35.9437C14.1869 35.9437 14.8141 35.4452 14.9515 34.7286L16.1402 28.5281C16.1863 28.2872 16.1726 28.0386 16.1002 27.8042L14.9426 24.0601L15.0541 24.1381C15.751 23.1404 16.4483 22.1997 17.1419 21.3107L16.8379 21.3123C16.1963 22.1395 15.5504 23.0126 14.9041 23.9355L14.7625 23.4778C15.2226 22.8491 15.7742 22.1174 16.4089 21.3145L15.8531 21.3174C15.3804 21.9108 14.9603 22.4572 14.5968 22.9418L14.413 22.3473C14.3932 22.2831 14.3681 22.2221 14.3407 22.1626C14.281 22.0022 14.2028 21.8242 14.1036 21.6243C14.0462 21.5275 13.9916 21.4279 13.938 21.3274L12.7517 21.3336H12.746C12.3192 21.3336 11.916 21.1074 11.6935 20.7432L9.30978 16.8395C8.95538 16.2591 9.13931 15.4987 9.7197 15.1444C9.91332 15.0262 10.1352 14.9636 10.3612 14.9636C10.795 14.9636 11.1888 15.1844 11.4148 15.5542L13.4357 18.8636L17.801 18.8408C18.347 18.8408 18.8093 19.1932 18.9747 19.6801C19.1248 19.5289 19.2263 19.3276 19.2484 19.099C19.2592 18.9885 19.2497 18.881 19.2247 18.7789C25.9907 10.9874 31.9443 8.16645 32.8241 7.77766L45.8901 41.1809L46.1131 41.0937L33.002 7.57521C32.9904 7.54546 32.9673 7.5216 32.9381 7.50892C32.9088 7.49629 32.8756 7.49582 32.8459 7.50769C32.8377 7.51098 32.531 7.6361 31.9849 7.91272L31.8249 7.69905C32.0368 7.59324 32.2492 7.48945 32.4628 7.39015L32.4256 7.22607C26.9849 9.63974 22.0954 14.1794 18.5808 18.0922C18.5191 18.0729 18.4546 18.0596 18.3877 18.0531L13.8246 17.6099ZM31.7509 8.03306C30.7668 8.54662 29.1776 9.46687 27.2201 10.9261C26.3532 11.5723 25.3617 12.3648 24.2806 13.3187L24.0783 13.0983C26.3628 11.0722 28.9018 9.19413 31.5898 7.81786L31.7509 8.03306ZM23.8851 13.2714L24.0868 13.4913C22.7077 14.7208 21.1895 16.2085 19.6011 17.9881L19.3995 17.7684C20.7333 16.2875 22.2419 14.7439 23.8851 13.2714ZM19.2255 17.9625L19.4284 18.1835C19.3273 18.2978 19.2261 18.4123 19.1245 18.5289C19.0734 18.4404 19.0085 18.3607 18.9323 18.2927C19.0291 18.183 19.1267 18.073 19.2255 17.9625Z" fill="#37AFE3"/>
<path d="M5.50328 40.13L10.0624 41.1634L14.217 41.1032L15.7921 41.925L17.3556 42.2147L18.2627 43.1392H35.8249L31.9138 38.7492L29.3596 37.3125L25.8476 37.2327L22.4154 37.3923L18.8236 36.7538H15.2318H12.1189L8.92612 36.0354L6.61139 35.9556L2.14156 37.3125L1.88477 41.9989L3.5442 41.8771L5.50328 40.13Z" fill="#37AFE3"/>
<path d="M35.7334 40.7681H41.5138V40.9692H35.7334V40.7681Z" fill="#37AFE3"/>
<path d="M42.3242 40.7681H44.7413V40.9692H42.3242V40.7681Z" fill="#37AFE3"/>
<path d="M46.9395 40.7681H49.3565V40.9692H46.9395V40.7681Z" fill="#37AFE3"/>
<path d="M34.0391 39.8586H38.9424V39.9692H34.0391V39.8586Z" fill="#37AFE3"/>
<path d="M40.1953 39.8586H42.6124V39.9692H40.1953V39.8586Z" fill="#37AFE3"/>
<path d="M43.4854 39.8586H44.4785V39.9692H43.4854V39.8586Z" fill="#37AFE3"/>
<path d="M47.3545 39.8586H49.7715V39.9692H47.3545V39.8586Z" fill="#37AFE3"/>
<path d="M36.6709 42.01H44.3908V42.3412H36.6709V42.01Z" fill="#37AFE3"/>
<path d="M45.2686 42.01H46.9646V42.3412H45.2686V42.01Z" fill="#37AFE3"/>
<path d="M48.3037 42.01H49.9998V42.3412H48.3037V42.01Z" fill="#37AFE3"/>
<path d="M0.463537 42.4634L0 43.259H17.8773L17.1791 42.5473L15.674 42.2684L14.1318 41.4637L10.0251 41.5232L5.60468 40.5212L3.69261 42.2264L0.463537 42.4634Z" fill="#37AFE3"/>
<path d="M8.27804 11.1574C8.85973 12.5268 10.4414 13.1653 11.8107 12.5836C13.1306 12.0229 13.771 10.5335 13.2948 9.20044L8.10254 10.5593C8.13721 10.7606 8.19469 10.9612 8.27804 11.1574Z" fill="#37AFE3"/>
<path d="M17.8075 19.1162C17.8058 19.1162 17.8041 19.1162 17.8023 19.1162L13.2817 19.1398L11.1798 15.6978C10.904 15.2463 10.3144 15.1039 9.86312 15.3794C9.41156 15.6551 9.26916 16.2446 9.54474 16.696L11.9284 20.5996C12.1025 20.8846 12.4122 21.0583 12.7459 21.0583H12.751L17.8124 21.0318C18.3413 21.029 18.768 20.5979 18.7652 20.069C18.7624 19.5417 18.3341 19.1162 17.8075 19.1162Z" fill="#37AFE3"/>
<path d="M14.8975 8.49621L14.7838 8.06186L13.0361 8.51926L12.4731 6.92356C12.4731 6.92356 11.5009 6.5181 9.98207 6.91558C8.46344 7.31302 7.81428 8.14279 7.81428 8.14279L8.10541 9.80962L6.35742 10.2671L6.47109 10.7014L14.8975 8.49621Z" fill="#37AFE3"/>
</svg>
