<svg width="50" height="50" viewBox="0 0 50 50" fill="none" xmlns="http://www.w3.org/2000/svg">
<g clip-path="url(#clip0_1_9344)">
<path d="M49.7916 18.7564C49.732 18.7062 49.6629 18.6681 49.5882 18.6441C49.5136 18.6202 49.4349 18.6109 49.3566 18.6167C49.2783 18.6226 49.2019 18.6436 49.1318 18.6784C49.0618 18.7132 48.9994 18.7612 48.9483 18.8197C44.9461 23.3962 38.1093 25.6587 35.9234 24.006C34.3055 22.7829 35.2795 19.3896 38.5935 14.6958C42.8296 8.69778 40.6055 5.71575 39.4522 4.71184C35.8521 1.5763 26.5445 2.66887 18.9485 9.25051C18.8739 9.31607 18.8174 9.39913 18.7843 9.49192C18.6952 9.47743 18.6049 9.47025 18.5146 9.47044C13.9652 9.52044 10.7157 10.8072 8.46973 12.7704C8.5613 12.8639 8.61827 12.9848 8.63152 13.1138C8.7973 14.7755 9.78521 16.3509 11.4143 17.5505C13.4096 19.0189 16.0255 19.6775 18.2468 19.2693C18.3291 19.2542 18.4137 19.2565 18.495 19.2759C19.4379 15.3661 20.3903 12.4298 20.1206 10.8013C20.0748 10.5386 19.9627 10.2912 19.7946 10.0818C26.7119 4.12434 35.4468 2.79153 38.6596 5.58801C40.6219 7.29622 40.2493 10.2939 37.6115 14.0286C32.7661 20.8896 33.6217 23.7478 35.193 24.9341C36.0085 25.4846 36.9864 25.7563 37.9754 25.7072C41.5317 25.7072 46.6577 23.24 49.8561 19.5822C49.9592 19.4642 50.0103 19.311 49.9982 19.1562C49.9861 19.0013 49.9118 18.8575 49.7916 18.7564ZM15.8298 13.1704C15.6571 13.1704 15.4883 13.1202 15.3447 13.0262C15.2011 12.9322 15.0892 12.7985 15.0231 12.6421C14.957 12.4857 14.9398 12.3136 14.9734 12.1476C15.0071 11.9816 15.0903 11.8291 15.2124 11.7094C15.3345 11.5897 15.4901 11.5082 15.6595 11.4752C15.8288 11.4421 16.0044 11.4591 16.1639 11.5239C16.3235 11.5886 16.4598 11.6983 16.5558 11.8391C16.6517 11.9798 16.7029 12.1453 16.7029 12.3146C16.703 12.427 16.6804 12.5383 16.6366 12.6422C16.5927 12.7461 16.5284 12.8405 16.4473 12.92C16.3663 12.9995 16.27 13.0626 16.164 13.1056C16.0581 13.1487 15.9445 13.1708 15.8298 13.1708V13.1704Z" fill="#37AFE3"/>
<path d="M29.4142 45.5521C27.2327 44.87 29.8226 40.9626 27.2463 40.3841C24.7604 39.8263 21.9895 44.8642 16.6925 44.7302C13.245 44.5806 10.167 44.6364 8.11105 40.9556C6.67402 38.3837 4.23076 40.1958 5.50121 43.2657C5.78455 43.9505 5.09234 45.3818 3.84859 45.8622C3.79364 45.8844 3.74734 45.9232 3.71645 45.9729C3.68555 46.0227 3.67168 46.0808 3.67683 46.1388C3.68199 46.1969 3.70592 46.2518 3.74513 46.2955C3.78434 46.3393 3.83678 46.3696 3.89482 46.3821C8.21386 47.0818 25.6498 46.7337 27.8851 46.5407C29.9972 46.3575 29.7517 45.6575 29.4142 45.5521Z" fill="#37AFE3"/>
<path d="M0.45656 41.8537C1.43928 43.176 3.55896 42.0779 3.36169 40.9576C2.91098 38.3986 -1.38535 39.3752 0.45656 41.8537Z" fill="#37AFE3"/>
<path d="M41.9619 37.5943C41.7021 39.1357 43.6707 39.363 44.5482 38.3568C44.7617 38.1728 44.926 37.9405 45.0268 37.6801C45.1277 37.4197 45.162 37.139 45.1269 36.8626C44.934 35.804 42.3162 35.4927 41.9619 37.5943Z" fill="#37AFE3"/>
<path d="M37.4483 36.4596C38.4083 35.465 37.0645 33.5561 35.4191 34.4701C34.9381 34.7373 34.2606 35.326 34.5399 36.2279C34.907 37.4092 36.4887 37.4541 37.4483 36.4596Z" fill="#37AFE3"/>
<path d="M28.3926 12.4383C28.4268 12.0114 28.6364 11.3512 27.7402 10.8496C27.501 10.7334 27.235 10.6805 26.9684 10.696C26.7019 10.7115 26.4442 10.795 26.2207 10.9382C25.9972 11.0814 25.8158 11.2793 25.6943 11.5123C25.5728 11.7453 25.5155 12.0054 25.5281 12.2668C25.4814 13.6352 28.2268 14.5313 28.3926 12.4383Z" fill="#37AFE3"/>
<path d="M9.08022 8.20557C9.08022 8.20557 10.6595 8.21846 10.8735 7.30127C11.1752 6.01221 9.56122 5.07823 8.23777 5.51612C6.91433 5.95401 6.98367 8.63721 9.08022 8.20557Z" fill="#37AFE3"/>
<path d="M30.2014 34.186C29.3211 34.5733 28.409 34.8869 27.4748 35.1235C28.2375 32.6294 25.6253 31.111 25.5886 31.9142C25.4021 35.9935 23.9495 37.5071 23.1338 38.2786C25.5149 39.0044 30.238 38.3372 30.9916 34.7864C31.0122 34.6866 31.0039 34.583 30.9677 34.4875C30.9314 34.392 30.8687 34.3083 30.7865 34.2459C30.7044 34.1835 30.606 34.1448 30.5026 34.1342C30.3992 34.1236 30.2949 34.1416 30.2014 34.186Z" fill="#37AFE3"/>
<path d="M44.6359 45.9455C44.453 45.8229 44.3151 45.646 44.2426 45.4408C43.5169 43.4533 43.6169 41.3185 41.0182 42.0244C39.594 42.4111 36.386 45.5037 31.5939 46.0478C31.5331 46.0535 31.4764 46.0804 31.4343 46.1237C31.3922 46.167 31.3674 46.2238 31.3645 46.2835C31.3617 46.3433 31.3809 46.4021 31.4187 46.4491C31.4566 46.4961 31.5104 46.5281 31.5704 46.5392C34.6564 47.0861 41.7264 47.1221 44.4705 46.6732C44.5507 46.6594 44.6249 46.6227 44.6838 46.5675C44.7427 46.5124 44.7835 46.4414 44.8012 46.3635C44.8189 46.2856 44.8127 46.2043 44.7832 46.1299C44.7538 46.0555 44.7026 45.9913 44.6359 45.9455Z" fill="#37AFE3"/>
<path d="M17.3239 25.59C17.9616 25.5119 19.6751 25.715 20.198 26.1826C20.2473 26.2266 20.3094 26.2547 20.3756 26.2629C20.4418 26.2711 20.509 26.2591 20.568 26.2285C20.627 26.198 20.675 26.1503 20.7053 26.092C20.7357 26.0337 20.7469 25.9677 20.7376 25.9029C20.5662 24.6306 19.4715 22.6095 17.9424 21.7126C18.0306 21.2929 18.1227 20.8738 18.2186 20.4556C17.7884 20.5229 17.3535 20.5576 16.9179 20.5595C14.6725 20.5328 12.4938 19.8079 10.6959 18.4892C9.05285 17.3519 7.91601 15.6415 7.51861 13.7087C7.14519 14.1246 6.80279 14.5662 6.49404 15.0302C2.35114 16.6107 0.414384 21.3001 0.216325 23.0408C0.204636 23.1369 0.22294 23.2342 0.268821 23.3198C0.314702 23.4055 0.386005 23.4755 0.473321 23.5207C0.560638 23.5658 0.659865 23.584 0.757911 23.5727C0.855957 23.5614 0.948214 23.5213 1.02251 23.4576C1.9519 22.6486 3.04567 22.0419 4.23171 21.6775C3.79733 26.0326 4.96775 30.4201 6.61878 32.697C11.0622 38.8259 17.8368 38.9783 23.133 38.2791C17.8157 35.0318 16.8585 30.4134 17.3239 25.59Z" fill="#37AFE3"/>
</g>
<defs>
<clipPath id="clip0_1_9344">
<rect width="50" height="50" fill="white"/>
</clipPath>
</defs>
</svg>
