<svg width="50" height="50" viewBox="0 0 50 50" fill="none" xmlns="http://www.w3.org/2000/svg">
<g clip-path="url(#clip0_1_2304)">
<path fill-rule="evenodd" clip-rule="evenodd" d="M12.8034 35.5825H23.9453V25.4902V15.3979H10.1045C4.53355 15.3979 0.000675201 19.9308 0.000675201 25.4902C0.000675201 30.992 4.42974 35.4787 9.9084 35.5825V26.1592H7.87841C7.07103 26.1592 6.42513 25.5133 6.42513 24.7174C6.42513 23.9216 7.07103 23.2757 7.87841 23.2757H14.845C15.6408 23.2757 16.2867 23.9216 16.2867 24.7174C16.2867 25.5133 15.6408 26.1592 14.845 26.1592H12.8034V35.5825Z" fill="#37AFE3"/>
<path fill-rule="evenodd" clip-rule="evenodd" d="M26.84 32.7104H42.1572C42.5263 32.7104 42.8262 32.4105 42.8262 32.0414V18.9387C42.8262 18.5697 42.5263 18.2698 42.1572 18.2698H26.84V25.4901V32.7104ZM30.0349 25.8592C29.8273 25.8592 29.6658 25.6977 29.6658 25.4901C29.6658 25.2825 29.8273 25.121 30.0349 25.121H39.6197C39.8273 25.121 40.0003 25.2825 40.0003 25.4901C40.0003 25.6977 39.8273 25.8592 39.6197 25.8592H30.0349Z" fill="#37AFE3"/>
<path fill-rule="evenodd" clip-rule="evenodd" d="M16.1582 14.6136V5.77856H9.90676V14.6252C9.96443 14.6252 10.0336 14.6136 10.1028 14.6136H16.1582Z" fill="#37AFE3"/>
<path fill-rule="evenodd" clip-rule="evenodd" d="M6.89653 4.99414H19.1572C19.5263 4.99414 19.8262 4.69425 19.8262 4.32516C19.8262 3.96761 19.5263 3.66772 19.1572 3.66772H6.89653C6.53897 3.66772 6.23909 3.96761 6.23909 4.32516C6.23909 4.69425 6.53897 4.99414 6.89653 4.99414Z" fill="#37AFE3"/>
<path fill-rule="evenodd" clip-rule="evenodd" d="M43.5986 29.2502H46.2284C48.3045 29.2502 50 27.5662 50 25.4901C50 23.4139 48.3045 21.73 46.2284 21.73H43.5986V29.2502Z" fill="#37AFE3"/>
<path fill-rule="evenodd" clip-rule="evenodd" d="M33.7724 39.7808C34.1415 39.7808 34.4414 39.4809 34.4414 39.1118V32.0415C34.4414 31.6839 34.1415 31.384 33.7724 31.384C33.4033 31.384 33.115 31.6839 33.115 32.0415V39.1118C33.115 39.4809 33.4033 39.7808 33.7724 39.7808Z" fill="#37AFE3"/>
<path fill-rule="evenodd" clip-rule="evenodd" d="M25.3983 39.7807H36.5517C36.9208 39.7807 37.2207 39.4808 37.2207 39.1117C37.2207 38.7427 36.9208 38.4543 36.5517 38.4543H26.0558C26.0558 29.8153 26.0558 21.1763 26.0558 12.5374H36.5517C36.9208 12.5374 37.2207 12.2375 37.2207 11.8684C37.2207 11.4993 36.9208 11.2109 36.5517 11.2109H25.3983C25.0292 11.2109 24.7294 11.4993 24.7294 11.8684V39.1117C24.7294 39.4808 25.0292 39.7807 25.3983 39.7807Z" fill="#37AFE3"/>
<path fill-rule="evenodd" clip-rule="evenodd" d="M33.7724 19.6077C34.1415 19.6077 34.4414 19.3078 34.4414 18.9387V11.8684C34.4414 11.4993 34.1415 11.2109 33.7724 11.2109C33.4033 11.2109 33.115 11.4993 33.115 11.8684V18.9387C33.115 19.3078 33.4033 19.6077 33.7724 19.6077Z" fill="#37AFE3"/>
<path fill-rule="evenodd" clip-rule="evenodd" d="M3.81884 46.3321H11.3621C11.7196 46.3321 12.0195 46.0322 12.0195 45.6631V24.7173C12.0195 24.3482 11.7196 24.0483 11.3621 24.0483C10.993 24.0483 10.6931 24.3482 10.6931 24.7173V45.0057H3.81884C3.44975 45.0057 3.14987 45.3055 3.14987 45.6746C3.14987 46.0322 3.44975 46.3321 3.81884 46.3321Z" fill="#37AFE3"/>
<path fill-rule="evenodd" clip-rule="evenodd" d="M7.87796 25.3863H14.8445C15.2021 25.3863 15.502 25.0864 15.502 24.7173C15.502 24.3482 15.2021 24.0483 14.8445 24.0483H7.87796C7.50887 24.0483 7.20899 24.3482 7.20899 24.7173C7.20899 25.0864 7.50887 25.3863 7.87796 25.3863Z" fill="#37AFE3"/>
</g>
<defs>
<clipPath id="clip0_1_2304">
<rect width="50" height="50" fill="white" transform="matrix(-1 0 0 1 50 0)"/>
</clipPath>
</defs>
</svg>
