<svg width="50" height="50" viewBox="0 0 50 50" fill="none" xmlns="http://www.w3.org/2000/svg">
<g clip-path="url(#clip0_1_2344)">
<path d="M48.7959 43.3143C49.028 43.0555 49.2423 42.77 49.412 42.4666C50.4566 40.6193 49.8226 38.7006 49.6798 38.3348C49.5637 38.0046 49.2601 37.7815 48.9119 37.7547C47.367 37.5555 45.0097 38.5834 44.1798 40.2536C44.1003 40.3602 44.0059 40.4206 43.8851 40.3337C39.8661 36.7238 35.2024 35.6673 30.4386 37.487C27.9565 38.424 26.0725 40.0036 24.9296 41.1547C21.973 44.475 26.9927 47.5024 29.5904 48.7847C30.7284 47.6765 31.1932 46.3866 31.503 44.91C31.7486 43.7649 33.4545 44.1196 33.2519 45.2667C32.9201 46.8073 32.427 48.2056 31.3762 49.4718C35.892 50.7577 40.1073 49.6931 43.8762 46.3038C43.9901 46.2175 44.0914 46.2433 44.1351 46.3038C45.1114 48.014 46.8259 48.9376 48.7601 48.8739C49.153 48.9096 49.5369 48.6865 49.6798 48.2939C49.8226 47.928 50.4566 46.0093 49.4119 44.1621C49.2334 43.8587 49.028 43.5731 48.7959 43.3143Z" fill="#37AFE3"/>
<path d="M5.8036 36.7464C5.84596 36.5014 1.07308 36.6663 0.892857 36.6214C0.732151 36.6214 0.580384 36.666 0.446428 36.7464C0.17858 36.898 0 37.1836 0 37.5138V46.8839C0.129625 51.0081 6.11865 51.0137 6.25003 46.8838V37.5138C6.25003 37.1836 6.07145 36.8981 5.8036 36.7464Z" fill="#37AFE3"/>
<path d="M27.5244 35.4763C28.1997 34.8018 28.5716 33.905 28.5716 32.9534V26.6445C29.6073 26.2786 30.3573 25.288 30.3573 24.1279C30.3573 22.9678 29.6073 21.9773 28.5716 21.6114V15.204C28.5716 14.2201 29.3724 13.4192 30.3573 13.4192H31.2502C37.1439 13.2384 37.1521 4.67581 31.25 4.49533H28.5716C27.5867 4.49533 26.7858 3.69445 26.7858 2.71055V1.81816H27.6787C28.844 1.80972 28.8564 0.0476333 27.6787 0.0333833C12.2712 -0.726973 1.00583 11.6012 2.23235 26.8052C1.09742 26.6641 0.00163395 27.3791 1.78814e-05 28.59C2.4251e-08 28.5899 0 31.2671 0 31.2671C0 31.5973 0.17858 31.8828 0.446428 32.0345V34.8813C0.589258 34.8456 0.741089 34.8367 0.892856 34.8367C1.1581 34.8767 5.67856 34.7724 5.80352 34.8813C5.80359 34.8813 5.80359 32.0345 5.80359 32.0345C6.07144 31.8829 6.25002 31.5973 6.25002 31.2671V28.5899C6.25002 27.6083 5.44642 26.8051 4.4643 26.8051H4.01787C2.92177 13.7159 11.7182 2.52049 25.0003 1.84074C25.0001 1.84077 25.0001 2.71055 25.0001 2.71055C25.0001 4.67922 26.6023 6.28012 28.5716 6.28012H31.2502C32.6884 6.24816 33.9608 7.52796 33.9287 8.95732C33.9287 10.4336 32.7272 11.6345 31.2502 11.6345H30.3573C28.388 11.6345 26.7858 13.2354 26.7858 15.204V21.6114C25.7502 21.9773 25.0001 22.9679 25.0001 24.128C25.0001 25.2881 25.7502 26.2786 26.7858 26.6445V32.9534C26.7282 35.2954 23.2816 35.3188 23.2144 32.9533V32.3878C23.5562 32.5848 23.9996 32.5377 24.2921 32.2458C24.6409 31.8972 24.6409 31.3324 24.2921 30.9839L22.9528 29.6453C22.4244 29.0786 21.4036 29.5066 21.4287 30.2762C21.4287 30.2762 21.4287 32.9534 21.4287 32.9534C21.3596 36.0655 25.3875 37.7309 27.5244 35.4763ZM27.6787 23.2356C28.8516 23.2581 28.8515 24.998 27.6787 25.0203C26.5058 24.9978 26.506 23.2579 27.6787 23.2356Z" fill="#37AFE3"/>
</g>
<defs>
<clipPath id="clip0_1_2344">
<rect width="50" height="50" fill="white"/>
</clipPath>
</defs>
</svg>
