<svg width="50" height="50" viewBox="0 0 50 50" fill="none" xmlns="http://www.w3.org/2000/svg">
<g clip-path="url(#clip0_1_2360)">
<path d="M23.2766 26.7241H20.7637C20.9158 27.4768 21.2164 28.1917 21.6478 28.827C22.0793 29.4623 22.633 30.0052 23.2766 30.4241V26.7241Z" fill="#37AFE3"/>
<path d="M13.793 42.2414H22.4137V41.3794C22.4172 41.088 22.4581 40.7983 22.5352 40.5173L13.793 38.1897V42.2414Z" fill="#37AFE3"/>
<path d="M17.8106 33.6206C16.9518 33.62 16.1156 33.8949 15.4247 34.405C14.7339 34.9151 14.2249 35.6334 13.9727 36.4542L23.4046 38.9654C23.6445 38.7256 23.9184 38.5222 24.2175 38.362L20.6494 34.7939C19.8938 34.0454 18.8742 33.6239 17.8106 33.6206Z" fill="#37AFE3"/>
<path d="M40.8464 40.2906L40.7059 39.3104C40.6438 38.8794 40.5594 38.4483 40.4594 38.0216C40.4542 38.0018 40.4516 37.9837 40.4464 37.9639L40.4171 37.8561L40.3602 37.6587C40.274 37.3208 40.1801 36.9828 40.0688 36.6535L39.9714 36.4044C39.8499 36.0673 39.7223 35.7276 39.574 35.3992L39.493 35.2345C39.3301 34.8837 39.1594 34.5371 38.9697 34.2001L38.9637 34.1906L38.9551 34.1811C38.9257 34.1302 38.899 34.088 38.8688 34.0389C38.6783 33.7113 38.4792 33.3845 38.2654 33.0699C37.7916 32.4341 37.273 31.8328 36.7137 31.2708C36.0955 33.6763 34.6928 35.8069 32.7274 37.3255C30.7621 38.8441 28.3465 39.664 25.8628 39.6552C25.4055 39.6552 24.967 39.8369 24.6437 40.1602C24.3203 40.4836 24.1387 40.9221 24.1387 41.3794V45.6897C24.1387 46.147 24.3203 46.5855 24.6437 46.9089C24.967 47.2322 25.4055 47.4139 25.8628 47.4139C31.522 47.4309 36.957 45.2035 40.9766 41.2199L40.8464 40.2906Z" fill="#37AFE3"/>
<path d="M15.0508 48.8879C15.7931 49.6 16.7816 49.9984 17.8103 50H18.8275C19.3733 49.9964 19.913 49.8848 20.4154 49.6715L23.6284 48.2922C23.2823 47.9962 22.9987 47.6343 22.7939 47.2275L15.0508 48.8879Z" fill="#37AFE3"/>
<path d="M6.42971 15.2715C7.07402 15.0191 7.62749 14.5787 8.01815 14.0075C8.40881 13.4364 8.6186 12.7609 8.62023 12.0689V9.83962L7.50557 10.9543L6.28661 9.73531L8.87282 7.1491C8.99338 7.02857 9.14697 6.9465 9.31417 6.91325C9.48137 6.88 9.65467 6.89707 9.81217 6.96231C9.96967 7.02754 10.1043 7.13801 10.199 7.27974C10.2938 7.42147 10.3443 7.58811 10.3444 7.75858V12.0689C10.3427 13.1456 10.0053 14.195 9.37917 15.0709C8.75307 15.9469 7.86943 16.6058 6.85126 16.956L7.39437 19.1293L15.2711 11.9094L14.8495 10.3646C14.4519 8.87641 13.5743 7.56097 12.353 6.62222C11.1317 5.68347 9.63479 5.17385 8.09437 5.17237C7.62892 5.16371 7.1683 5.26787 6.75186 5.47594C6.33542 5.68401 5.97554 5.9898 5.70299 6.3672C5.33075 6.90544 5.08625 7.52152 4.9881 8.16852C4.88995 8.81553 4.94074 9.47641 5.13661 10.1008L6.42971 15.2715Z" fill="#37AFE3"/>
<path d="M45.9586 6.03444C44.3642 4.91536 42.4643 4.31347 40.5164 4.3103H34.6543C35.8324 4.79085 36.969 5.36751 38.0526 6.03444H45.9586Z" fill="#37AFE3"/>
<path d="M17.1545 18.7671L15.7838 13.7783L5.50189 23.2016C5.34336 23.3917 5.25697 23.6316 5.25792 23.8792C5.25585 24.0262 5.28314 24.1721 5.33819 24.3085C5.39324 24.4448 5.47493 24.5688 5.5785 24.6732C5.68206 24.7775 5.80541 24.8602 5.94132 24.9163C6.07723 24.9724 6.22296 25.0008 6.36999 24.9999C10.2803 24.9999 13.62 23.074 17.1545 18.7671Z" fill="#37AFE3"/>
<path d="M31.2714 27.6311C31.2714 27.6311 31.199 27.613 31.1395 27.5931C30.7809 27.4655 30.43 27.3423 30.0791 27.2483C29.9929 27.2328 29.8567 27.2035 29.7093 27.1621C29.4774 27.1043 29.2274 27.0483 28.9783 26.9966C28.5459 28.6094 28.6689 30.3208 29.3274 31.8552L31.649 27.7931C31.5205 27.7388 31.4007 27.6811 31.2714 27.6311Z" fill="#37AFE3"/>
<path d="M22.4137 43.9656H13.793V45.9828C13.7973 46.4467 13.8828 46.9062 14.0456 47.3406L22.4137 45.5483V43.9656Z" fill="#37AFE3"/>
<path d="M19.8277 7.75858C20.7799 7.75858 21.5518 6.98666 21.5518 6.03444C21.5518 5.08223 20.7799 4.3103 19.8277 4.3103C18.8754 4.3103 18.1035 5.08223 18.1035 6.03444C18.1035 6.98666 18.8754 7.75858 19.8277 7.75858Z" fill="#37AFE3"/>
<path d="M48.3435 19.8277H50.0004V18.1035H47.8125C48.0177 18.6725 48.1901 19.2475 48.3435 19.8277Z" fill="#37AFE3"/>
<path d="M49.137 25.8621C49.137 25.9397 49.1283 26.0147 49.1275 26.0914C49.6994 24.7485 49.9958 23.3045 49.999 21.8449V21.5518H48.7344C49.0016 22.973 49.1364 24.416 49.137 25.8621Z" fill="#37AFE3"/>
<path d="M45.7568 17.5724C44.1277 13.6397 41.367 10.2796 37.8251 7.91838C34.2832 5.5572 30.1197 4.30141 25.8629 4.31035C24.8753 4.31295 23.8891 4.38294 22.9111 4.51983C23.1483 4.98971 23.2734 5.50815 23.2767 6.03449C23.2767 6.94903 22.9134 7.82611 22.2667 8.47279C21.62 9.11946 20.7429 9.48276 19.8284 9.48276C18.9138 9.48276 18.0368 9.11946 17.3901 8.47279C16.7434 7.82611 16.3801 6.94903 16.3801 6.03449C16.3837 5.74307 16.4249 5.45333 16.5025 5.17242H13.2879C14.869 6.34221 16.0065 8.01374 16.5146 9.9138L18.9353 18.7353C18.9714 18.8666 18.976 19.0046 18.9486 19.1379C18.9212 19.2713 18.8625 19.3962 18.7775 19.5026C17.1324 21.6905 15.096 23.5544 12.7715 25H12.9318C14.1629 25 15.3797 24.7369 16.5007 24.2283C17.6218 23.7197 18.6211 22.9773 19.4318 22.0509L20.287 21.0733C20.9174 20.3526 21.3643 19.4902 21.5894 18.5596C21.8146 17.6289 21.8114 16.6576 21.5801 15.7285L23.2525 15.3112C23.5514 16.5099 23.5561 17.763 23.2661 18.9639C22.9761 20.1647 22.4 21.2776 21.587 22.2078L20.7301 23.1897C20.1142 23.8847 19.4076 24.4936 18.6292 25H21.5525C23.3358 25.0011 25.0651 24.3878 26.4492 23.2634C27.8334 22.139 28.7879 20.572 29.1522 18.8263C29.5165 17.0806 29.2683 15.2627 28.4494 13.6786C27.6305 12.0944 26.2909 10.8407 24.656 10.1285L25.3456 8.54828C26.8937 9.22317 28.2333 10.2995 29.2258 11.6658C30.2183 13.0322 30.8276 14.6389 30.9908 16.3198C31.1539 18.0007 30.865 19.6946 30.1538 21.2263C29.4426 22.758 28.335 24.0719 26.9456 25.0319C27.1896 25.0431 27.4361 25.0448 27.6767 25.0629C27.8698 25.0836 28.0301 25.1086 28.1939 25.1345L28.4405 25.1724L28.4792 25.1776H28.4999L28.6836 25.2C28.8318 25.2172 28.9818 25.2345 29.1318 25.2612C29.4767 25.3267 29.8155 25.4086 30.1413 25.4897C30.2655 25.5224 30.3706 25.5448 30.4818 25.5672C30.9336 25.6905 31.3232 25.8259 31.7051 25.9621L31.8111 25.9931L31.8973 26.0224C32.2973 26.1793 32.6965 26.3448 33.081 26.5259C33.1244 26.541 33.1668 26.5591 33.2077 26.5802C34.4657 27.1767 35.6417 27.9326 36.7068 28.8293L36.7482 28.869L36.7611 28.8785L36.8284 28.9457L38.2491 30.3078C38.7618 30.8559 39.234 31.4404 39.662 32.0569L39.687 32.0948C39.7129 32.1336 39.7361 32.1767 39.762 32.2155C39.9844 32.544 40.193 32.8802 40.4111 33.256L40.4586 33.3336C40.468 33.35 40.4801 33.3638 40.4887 33.381C40.6818 33.7259 40.8732 34.1147 41.0542 34.5017C41.1017 34.5879 41.1275 34.6414 41.1499 34.6948C41.3103 35.05 41.4577 35.4345 41.5939 35.8155L41.6853 36.0422C41.8232 36.4733 41.931 36.8371 42.0301 37.2129L42.0611 37.3241C42.0732 37.3664 42.0844 37.4103 42.0956 37.4569C42.1042 37.4862 42.1137 37.5147 42.1206 37.5431C42.1448 37.644 42.1568 37.7474 42.1792 37.8491C42.2706 38.2578 42.3568 38.6603 42.412 39.05L42.4836 39.5603C44.8954 36.6553 46.4905 33.1607 47.1051 29.4354C47.3128 28.2556 47.4163 27.0599 47.4146 25.8621C47.4186 23.0534 46.8724 20.2711 45.8068 17.6724C45.7879 17.6402 45.7712 17.6068 45.7568 17.5724ZM33.9663 8.13966C36.7638 9.34697 39.1783 11.2956 40.9491 13.775L41.2198 14.1543L39.8163 15.156L39.5456 14.7767C37.9556 12.5524 35.7878 10.8049 33.2767 9.72328L33.9663 8.13966ZM31.6499 9.12932C30.8505 8.88927 30.0324 8.71625 29.2042 8.61207L29.418 6.90173C30.3412 7.01749 31.2533 7.20953 32.1448 7.47587L31.6499 9.12932ZM44.3517 23.1897L43.5758 23.5785C42.3536 24.1917 41.0053 24.5117 39.6379 24.5129C38.3557 24.5227 37.0886 24.2364 35.9352 23.6761C34.7819 23.1158 33.7735 22.2967 32.9887 21.2828L32.9275 21.2026L34.3206 20.1854C35.2426 21.3659 36.5296 22.2079 37.9807 22.5799C39.4317 22.9519 40.9651 22.8328 42.3413 22.2414L35.6784 17.0604L36.737 15.6983L44.4956 21.7328C44.6108 21.8222 44.7015 21.9394 44.7591 22.0733C44.8167 22.2073 44.8393 22.3537 44.825 22.4988C44.8106 22.644 44.7596 22.7831 44.6768 22.9031C44.5941 23.0232 44.4822 23.1203 44.3517 23.1854V23.1897Z" fill="#37AFE3"/>
<path d="M46.25 14.6553C46.556 15.2156 46.8431 15.7889 47.106 16.3794H50.0009V14.6553H46.25Z" fill="#37AFE3"/>
<path d="M39.6002 47.7094C40.7202 46.4727 41.3507 44.87 41.3735 43.2017C40.7556 43.7566 40.1087 44.2783 39.4355 44.7646C39.665 45.7286 39.7207 46.7258 39.6002 47.7094Z" fill="#37AFE3"/>
<path d="M45.2039 12.9309H49.96C49.9076 12.3477 49.8014 11.7705 49.6427 11.2068H43.9453C44.391 11.7585 44.8074 12.3361 45.2039 12.9309Z" fill="#37AFE3"/>
<path d="M32.7578 49.138C32.7578 49.3666 32.8486 49.5859 33.0103 49.7476C33.172 49.9092 33.3912 50.0001 33.6199 50.0001H33.8613C34.142 49.1852 34.3463 48.3459 34.4716 47.4932C33.9078 47.7173 33.338 47.9242 32.7578 48.1052V49.138Z" fill="#37AFE3"/>
<path d="M36.2692 46.688C36.2258 47.773 36.0394 48.8475 35.7148 49.8837C36.3701 49.7649 37.0044 49.5508 37.5976 49.2483C37.8857 48.1231 37.9816 46.9572 37.8812 45.8C37.3554 46.1207 36.8166 46.413 36.2692 46.688Z" fill="#37AFE3"/>
<path d="M42.406 9.48268H48.9655C48.6506 8.86795 48.269 8.28976 47.8276 7.75854H40.5C41.1668 8.29754 41.8031 8.87314 42.406 9.48268Z" fill="#37AFE3"/>
<path d="M1.72414 12.069V0H0V12.069C0.00136934 13.4404 0.546758 14.7552 1.51648 15.7249C2.4862 16.6946 3.80102 17.24 5.17241 17.2414V15.5172C4.25787 15.5172 3.38079 15.1539 2.73411 14.5073C2.08744 13.8606 1.72414 12.9835 1.72414 12.069Z" fill="#37AFE3"/>
</g>
<defs>
<clipPath id="clip0_1_2360">
<rect width="50" height="50" fill="white"/>
</clipPath>
</defs>
</svg>
