<svg width="50" height="50" viewBox="0 0 50 50" fill="none" xmlns="http://www.w3.org/2000/svg">
<g clip-path="url(#clip0_1_9367)">
<path d="M45.653 33.6332C45.653 29.9335 44.1934 26.7123 42.0323 25.006C41.8728 24.8797 41.6712 24.8188 41.4685 24.8358C41.2657 24.8527 41.077 24.9462 40.9407 25.0972L38.5062 27.8022L36.0717 25.0973C35.9353 24.9463 35.7466 24.8528 35.5438 24.8359C35.3411 24.8189 35.1395 24.8798 34.9799 25.0061C32.8188 26.7123 31.3594 29.9335 31.3594 33.6332C31.3594 38.0905 33.4796 42.6279 36.3926 44.175C35.5999 44.71 34.946 45.4261 34.485 46.264C34.0241 47.1019 33.7692 48.0375 33.7416 48.9934C33.7416 49.2324 33.7567 49.4711 33.7869 49.7081C33.8032 49.8346 33.8497 49.9553 33.9222 50.0601C33.9948 50.1649 34.0915 50.2508 34.2041 50.3106C34.3167 50.3704 34.442 50.4023 34.5695 50.4037C34.697 50.4051 34.8229 50.3759 34.9368 50.3186L38.5062 48.52L42.0755 50.3186C42.1894 50.3759 42.3154 50.4051 42.4429 50.4037C42.5704 50.4023 42.6957 50.3704 42.8083 50.3106C42.9209 50.2508 43.0175 50.1649 43.0901 50.0601C43.1627 49.9553 43.2091 49.8346 43.2255 49.7081C43.2556 49.4711 43.2707 49.2324 43.2707 48.9934C43.2431 48.0375 42.9883 47.1019 42.5273 46.264C42.0663 45.4261 41.4124 44.71 40.6196 44.175C43.5322 42.6279 45.653 38.0905 45.653 33.6332ZM40.8884 31.7182C40.7314 31.7182 40.5779 31.6716 40.4473 31.5844C40.3167 31.4971 40.2149 31.3731 40.1548 31.228C40.0947 31.0829 40.079 30.9232 40.1096 30.7692C40.1403 30.6151 40.2159 30.4736 40.3269 30.3626C40.438 30.2515 40.5795 30.1759 40.7335 30.1453C40.8876 30.1146 41.0472 30.1303 41.1923 30.1904C41.3374 30.2506 41.4615 30.3523 41.5487 30.4829C41.636 30.6135 41.6825 30.767 41.6825 30.9241C41.6825 31.1347 41.5989 31.3367 41.45 31.4856C41.301 31.6345 41.0991 31.7182 40.8884 31.7182Z" fill="#37AFE3"/>
<path d="M10.6511 37.0787C10.8 36.9298 11.002 36.8461 11.2126 36.8461C11.4232 36.8461 11.6252 36.9298 11.7741 37.0787L13.9408 39.2452C14.3335 38.5792 14.4698 37.7929 14.3242 37.0337C14.1786 36.2744 13.7611 35.5943 13.1499 35.1209C12.5387 34.6474 11.7758 34.4131 11.0043 34.4619C10.2327 34.5107 9.50542 34.8392 8.95874 35.3858C8.41205 35.9325 8.0835 36.6597 8.03467 37.4313C7.98583 38.2029 8.22007 38.9657 8.69348 39.5769C9.16688 40.1882 9.84694 40.6057 10.6062 40.7514C11.3655 40.8971 12.1518 40.7608 12.8178 40.3682L10.6511 38.2018C10.5773 38.1281 10.5187 38.0405 10.4788 37.9442C10.4388 37.8478 10.4183 37.7445 10.4183 37.6402C10.4183 37.5359 10.4388 37.4326 10.4788 37.3363C10.5187 37.2399 10.5773 37.1524 10.6511 37.0787Z" fill="#37AFE3"/>
<path d="M15.7042 39.8862L15.1426 40.4477L13.9405 39.2451C13.6794 39.7178 13.2901 40.1071 12.8174 40.3681L14.0198 41.5704L13.4581 42.1319C13.3844 42.2056 13.3259 42.2932 13.2859 42.3895C13.246 42.4859 13.2254 42.5892 13.2254 42.6935C13.2254 42.7978 13.2459 42.901 13.2858 42.9974C13.3257 43.0938 13.3842 43.1813 13.458 43.2551C13.5317 43.3289 13.6193 43.3874 13.7156 43.4273C13.812 43.4672 13.9153 43.4878 14.0196 43.4878C14.1239 43.4878 14.2271 43.4673 14.3235 43.4274C14.4199 43.3875 14.5075 43.329 14.5812 43.2553L16.8272 41.0093C16.9751 40.8601 17.0578 40.6585 17.0573 40.4485C17.0569 40.2385 16.9733 40.0372 16.8248 39.8887C16.6763 39.7402 16.475 39.6566 16.265 39.6561C16.055 39.6557 15.8534 39.7383 15.7042 39.8862Z" fill="#37AFE3"/>
<path d="M41.205 4.37426C42.3014 4.37426 43.1902 3.48544 43.1902 2.38903C43.1902 1.29262 42.3014 0.403809 41.205 0.403809C40.1085 0.403809 39.2197 1.29262 39.2197 2.38903C39.2197 3.48544 40.1085 4.37426 41.205 4.37426Z" fill="#37AFE3"/>
<path d="M28.0086 26.8143C28.6301 26.1961 29.0958 25.439 29.3672 24.6054C29.6386 23.7718 29.708 22.8857 29.5697 22.02C30.2642 22.0412 30.9549 21.9093 31.5929 21.6339C32.2308 21.3585 32.8005 20.9462 33.2614 20.4262C33.7224 19.9063 34.0634 19.2913 34.2604 18.625C34.4573 17.9586 34.5054 17.2571 34.4012 16.5701C35.0016 16.5421 35.5897 16.3902 36.1285 16.1237C36.6673 15.8573 37.1451 15.4822 37.5318 15.0221C37.9185 14.5619 38.2057 14.0267 38.3754 13.4501C38.5451 12.8735 38.5935 12.268 38.5176 11.6717C39.1596 11.6078 39.7762 11.3877 40.3135 11.0305C40.8508 10.6733 41.2924 10.1899 41.5998 9.62261C41.9071 9.05533 42.0708 8.4214 42.0766 7.77624C42.0824 7.13108 41.93 6.49433 41.6329 5.92163L40.4275 7.17883C40.5186 7.55013 40.5177 7.93804 40.425 8.30893C40.3323 8.67982 40.1505 9.0225 39.8954 9.30725C39.6403 9.59201 39.3196 9.81024 38.9611 9.94304C38.6026 10.0758 38.2172 10.1192 37.8381 10.0693L37.7444 9.97562L36.6448 11.122L36.7871 11.2643C36.958 11.7207 37.0046 12.2144 36.9222 12.6947C36.8397 13.175 36.6312 13.6249 36.3179 13.9981C36.0045 14.3714 35.5977 14.6548 35.1389 14.8193C34.6801 14.9837 34.1859 15.0234 33.7068 14.9341L33.34 14.5674L32.2403 15.7138L32.6325 16.1059C32.8539 16.6504 32.918 17.246 32.8177 17.8251C32.7174 18.4042 32.4566 18.9436 32.065 19.3819C31.6734 19.8201 31.1667 20.1398 30.6025 20.3044C30.0383 20.4691 29.4393 20.4721 28.8734 20.3132L28.3401 19.7799L27.2404 20.9263L27.7749 21.4608C28.0479 22.1617 28.1153 22.9259 27.969 23.6637C27.8228 24.4015 27.4691 25.0823 26.9494 25.6261C26.4297 26.1699 25.7656 26.554 25.0352 26.7335C24.3047 26.913 23.5382 26.8803 22.8257 26.6393L22.2819 26.0957L21.1823 27.2421L21.7217 27.7814C22.0789 28.6243 22.1848 29.5524 22.0269 30.4541C21.8689 31.3558 21.4537 32.1927 20.8312 32.8639C20.2088 33.5351 19.4056 34.0122 18.5184 34.2376C17.6311 34.4631 16.6976 34.4273 15.8302 34.1346L15.1191 34.9207C15.2918 35.1687 15.4402 35.4327 15.5622 35.709C16.6065 36.0171 17.7125 36.0507 18.7736 35.8068C19.8346 35.5628 20.8149 35.0495 21.6198 34.3163C22.4247 33.5831 23.027 32.6549 23.3686 31.6211C23.7102 30.5874 23.7796 29.483 23.5701 28.4146C24.3819 28.489 25.2002 28.3843 25.9672 28.1077C26.7341 27.8312 27.431 27.3897 28.0086 26.8143Z" fill="#37AFE3"/>
<path d="M39.7168 5.62481C39.3309 5.45252 38.9791 5.21246 38.678 4.91601C38.3814 4.6147 38.1413 4.2626 37.9691 3.87646L12.2373 28.5581L15.0354 31.3563L39.7168 5.62481Z" fill="#37AFE3"/>
<path d="M41.0631 16.6035C40.0085 17.572 39.1663 18.7486 38.5896 20.0592C38.013 21.3697 37.7144 22.7856 37.7129 24.2174V24.5461L38.507 25.4279L39.3011 24.5457V24.2175C39.3024 23.006 39.555 21.8079 40.043 20.6989C40.5309 19.59 41.2436 18.5943 42.136 17.7748C43.9251 16.1517 45.0847 13.9498 45.4107 11.5562C45.7368 9.1626 45.2084 6.73071 43.9185 4.68823C43.8549 4.76319 43.8035 4.84491 43.7327 4.91566C43.4182 5.22716 43.0481 5.47693 42.6415 5.65202C43.6928 7.37622 44.1103 9.41292 43.8223 11.4117C43.5342 13.4105 42.5585 15.2464 41.0631 16.6035Z" fill="#37AFE3"/>
<path d="M47.1972 32.719C47.2149 33.023 47.2413 33.3243 47.2413 33.6335C47.2324 35.8898 46.7639 38.1207 45.8643 40.19L48.5502 41.1972C48.6704 41.2424 48.7998 41.2577 48.9272 41.2419C49.0546 41.2261 49.1763 41.1797 49.2819 41.1065C49.3874 41.0334 49.4736 40.9357 49.5331 40.8219C49.5926 40.7081 49.6237 40.5816 49.6236 40.4532V38.0709C49.623 37.0576 49.4063 36.0561 48.9879 35.1332C48.5695 34.2102 47.959 33.3872 47.1972 32.719Z" fill="#37AFE3"/>
<path d="M29.816 32.7188C29.0542 33.387 28.4437 34.2101 28.0253 35.133C27.6069 36.056 27.3902 37.0576 27.3896 38.0709V40.4532C27.3897 40.5815 27.4209 40.7079 27.4805 40.8215C27.54 40.9352 27.6262 41.0327 27.7317 41.1058C27.8372 41.1789 27.9588 41.2253 28.0861 41.2412C28.2134 41.257 28.3427 41.2418 28.4629 41.1968L31.1485 40.1898C30.2491 38.1205 29.7807 35.8897 29.7719 33.6335C29.7719 33.3242 29.7983 33.0228 29.816 32.7188Z" fill="#37AFE3"/>
<path d="M11.2121 32.876C12.216 32.8748 13.1942 33.1935 14.0049 33.7858L14.0747 33.7086C14.2113 33.5576 14.2847 33.3597 14.2796 33.156C14.2745 32.9524 14.1913 32.7584 14.0473 32.6144L11.185 29.7521C11.041 29.608 10.847 29.5249 10.6434 29.5198C10.4397 29.5147 10.2419 29.5881 10.0908 29.7248L1.50906 37.4891C1.16749 37.7982 0.892303 38.1735 0.700221 38.5922C0.50814 39.0109 0.403168 39.4643 0.391682 39.9248C0.380196 40.3853 0.462434 40.8434 0.633403 41.2712C0.804371 41.6989 1.0605 42.0875 1.38624 42.4132C1.71198 42.7389 2.10053 42.995 2.52829 43.166C2.95605 43.337 3.4141 43.4192 3.87462 43.4077C4.33513 43.3962 4.78851 43.2912 5.20721 43.0991C5.62591 42.9071 6.0012 42.6319 6.31028 42.2903L7.65626 40.8028C7.04537 40.1172 6.64583 39.2695 6.50582 38.3619C6.36581 37.4543 6.4913 36.5256 6.86717 35.6878C7.24303 34.8499 7.85323 34.1387 8.62419 33.6397C9.39515 33.1408 10.2938 32.8756 11.2121 32.876Z" fill="#37AFE3"/>
</g>
<defs>
<clipPath id="clip0_1_9367">
<rect width="50" height="50" fill="white"/>
</clipPath>
</defs>
</svg>
