<svg width="60" height="60" viewBox="0 0 60 60" fill="none" xmlns="http://www.w3.org/2000/svg">
<path d="M20.1527 32.4115L19.395 31.7005C19.197 31.5143 18.9614 31.3665 18.7019 31.2657C18.4423 31.1648 18.164 31.1129 17.8828 31.1129C17.6017 31.1129 17.3233 31.1648 17.0638 31.2657C16.8043 31.3665 16.5687 31.5143 16.3706 31.7005L11.8277 35.9575C11.4251 36.336 11.1992 36.8477 11.1992 37.381C11.1992 37.9143 11.4251 38.4259 11.8277 38.8045L12.5843 39.5135C12.7822 39.6996 13.0177 39.8474 13.2772 39.9482C13.5366 40.049 13.8149 40.101 14.0959 40.101C14.377 40.101 14.6553 40.049 14.9147 39.9482C15.1741 39.8474 15.4096 39.6996 15.6076 39.5135L20.1516 35.2565C20.554 34.8783 20.7798 34.3671 20.78 33.8342C20.7802 33.3013 20.5547 32.7899 20.1527 32.4115Z" fill="#0F6BAC"/>
<path d="M23.1864 49.4495C23.5924 49.8128 24.1333 50.0157 24.6959 50.0157C25.2585 50.0157 25.7993 49.8128 26.2054 49.4495V49.4445L30.7494 45.1925L30.7559 45.1875C31.1572 44.8095 31.3824 44.299 31.3824 43.767C31.3824 43.2349 31.1572 42.7244 30.7559 42.3465L29.9992 41.6355C29.5926 41.2711 29.0508 41.0676 28.487 41.0676C27.9233 41.0676 27.3814 41.2711 26.9749 41.6355L22.4319 45.8925C22.0289 46.2704 21.8027 46.7818 21.8027 47.315C21.8027 47.8481 22.0289 48.3595 22.4319 48.7375L23.1864 49.4495Z" fill="#0F6BAC"/>
<path d="M28.4907 54.4145C28.6887 54.6003 28.924 54.7478 29.1833 54.8485C29.4425 54.9491 29.7205 55.0009 30.0013 55.0009C30.2821 55.0009 30.5601 54.9491 30.8194 54.8485C31.0786 54.7478 31.314 54.6003 31.5119 54.4145L36.0527 50.1585C36.4553 49.7807 36.6812 49.2697 36.6812 48.737C36.6812 48.2043 36.4553 47.6932 36.0527 47.3155L35.3025 46.5995C34.9 46.2258 34.3549 46.0165 33.7871 46.0175C33.5084 46.0172 33.2324 46.0682 32.9749 46.1678C32.7174 46.2673 32.4836 46.4133 32.2867 46.5975L27.7438 50.8535C27.3424 51.2314 27.1172 51.7419 27.1172 52.274C27.1172 52.806 27.3424 53.3165 27.7438 53.6945L28.4907 54.4145Z" fill="#0F6BAC"/>
<path d="M19.3973 45.0694C19.6787 45.0701 19.9575 45.0184 20.2173 44.9174C20.4771 44.8165 20.7127 44.6683 20.9105 44.4814L25.4535 40.2254C25.8561 39.8469 26.0819 39.3352 26.0819 38.8019C26.0819 38.2687 25.8561 37.757 25.4535 37.3784L24.6969 36.6674C24.4985 36.4816 24.2628 36.3341 24.0032 36.2335C23.7436 36.1329 23.4653 36.0811 23.1841 36.0811C22.903 36.0811 22.6247 36.1329 22.3651 36.2335C22.1055 36.3341 21.8698 36.4816 21.6714 36.6674L17.1284 40.9254C16.7259 41.304 16.5 41.8157 16.5 42.3489C16.5 42.8822 16.7259 43.3939 17.1284 43.7724L17.8861 44.4814C18.0837 44.668 18.319 44.8161 18.5784 44.9171C18.8378 45.018 19.1162 45.0698 19.3973 45.0694Z" fill="#0F6BAC"/>
<path d="M36.0606 24.6125L48.1773 35.9665C48.5835 36.3313 49.1253 36.535 49.689 36.535C50.2527 36.535 50.7945 36.3313 51.2006 35.9665L51.9583 35.2565C52.361 34.8784 52.587 34.367 52.587 33.834C52.587 33.301 52.361 32.7896 51.9583 32.4115L35.2975 16.8015C35.0952 16.6187 34.8246 16.5165 34.543 16.5165C34.2614 16.5165 33.9908 16.6187 33.7885 16.8015L25.4592 24.6015C24.8632 25.1602 24.1548 25.6036 23.3746 25.9062C22.5944 26.2087 21.7579 26.3645 20.913 26.3645C20.0681 26.3645 19.2316 26.2087 18.4514 25.9062C17.6712 25.6036 16.9628 25.1602 16.3668 24.6015C15.7656 24.0365 15.4282 23.2727 15.4282 22.4765C15.4282 21.6803 15.7656 20.9165 16.3668 20.3515L28.4503 9.0325C25.1944 6.32359 20.949 4.88298 16.5888 5.00744C12.2285 5.1319 8.0855 6.81195 5.0131 9.7015C1.80188 12.7221 0 16.8043 0 21.059C0 25.3136 1.80188 29.3959 5.0131 32.4165L9.21742 36.3565C9.40261 35.6733 9.77914 35.0482 10.3084 34.5455L14.8514 30.2885C15.2488 29.9157 15.7212 29.6199 16.2415 29.418C16.7618 29.2161 17.3198 29.1122 17.8833 29.1122C18.4468 29.1122 19.0047 29.2161 19.525 29.418C20.0454 29.6199 20.5178 29.9157 20.9151 30.2885L21.6718 30.9995C22.1068 31.41 22.4412 31.9037 22.6518 32.4465C22.8623 32.9893 22.9441 33.5683 22.8914 34.1435C23.498 34.0982 24.108 34.1739 24.6809 34.3657C25.2537 34.5574 25.7762 34.8607 26.2137 35.2555L26.9714 35.9665C27.4014 36.3727 27.7329 36.8603 27.9437 37.3963C28.1545 37.9323 28.2395 38.5042 28.1931 39.0735C28.2907 39.0675 28.385 39.0475 28.4836 39.0475C29.0472 39.0464 29.6055 39.1498 30.1259 39.3517C30.6464 39.5536 31.1187 39.8499 31.5154 40.2235L32.2721 40.9345C32.7073 41.3451 33.0417 41.8389 33.2523 42.3819C33.4629 42.9249 33.5445 43.5041 33.4917 44.0795C34.098 44.035 34.7075 44.1108 35.2802 44.3019C35.8528 44.493 36.3755 44.7952 36.814 45.1885L37.5492 45.8885C37.5556 45.8935 37.5642 45.8955 37.5695 45.9005C37.7676 46.0867 38.0032 46.2345 38.2627 46.3353C38.5222 46.4361 38.8006 46.4881 39.0817 46.4881C39.3629 46.4881 39.6412 46.4361 39.9007 46.3353C40.1603 46.2345 40.3959 46.0867 40.5939 45.9005L41.3516 45.1895C41.7534 44.8114 41.9788 44.3005 41.9788 43.768C41.9788 43.2355 41.7534 42.7246 41.3516 42.3465L29.2402 30.9915C29.1408 30.8984 29.0621 30.7879 29.0085 30.6664C28.9549 30.5449 28.9274 30.4148 28.9277 30.2834C28.928 30.152 28.9561 30.0219 29.0102 29.9006C29.0644 29.7794 29.1436 29.6692 29.2434 29.5765C29.3432 29.4838 29.4616 29.4103 29.5918 29.3603C29.722 29.3103 29.8615 29.2847 30.0023 29.2849C30.2867 29.2855 30.5592 29.3915 30.7599 29.5795L42.8767 40.9345C43.2832 41.2986 43.8248 41.5019 44.3883 41.5019C44.9518 41.5019 45.4934 41.2986 45.8999 40.9345L46.6566 40.2245C47.0591 39.8461 47.2849 39.3346 47.2849 38.8015C47.2849 38.2684 47.0591 37.7569 46.6566 37.3785L34.5409 26.0245C34.3402 25.8365 34.2278 25.5817 34.2284 25.3164C34.229 25.051 34.3426 24.7967 34.5441 24.6095C34.7456 24.4223 35.0186 24.3174 35.303 24.3179C35.5874 24.3185 35.8599 24.4245 36.0606 24.6125Z" fill="#0F6BAC"/>
<path d="M54.5695 32.8095L54.9864 32.4185C58.1975 29.3981 59.9994 25.316 59.9994 21.0615C59.9994 16.8071 58.1975 12.7249 54.9864 9.70454C53.3994 8.21503 51.5125 7.03297 49.4341 6.22637C47.3558 5.41976 45.127 5.00452 42.8761 5.00452C40.6251 5.00452 38.3963 5.41976 36.318 6.22637C34.2397 7.03297 32.3527 8.21503 30.7657 9.70454L17.8891 21.7675C17.6874 21.9571 17.5742 22.2134 17.5742 22.4805C17.5742 22.7477 17.6874 23.004 17.8891 23.1935C18.7029 23.923 19.7877 24.3304 20.9162 24.3304C22.0447 24.3304 23.1294 23.923 23.9432 23.1935L32.2725 15.3935C32.8842 14.8459 33.6991 14.5402 34.5467 14.5402C35.3944 14.5402 36.2092 14.8459 36.8209 15.3935L53.4774 31.0015C54.0069 31.5032 54.3838 32.1272 54.5695 32.8095Z" fill="#0F6BAC"/>
</svg>
