<svg width="60" height="60" viewBox="0 0 60 60" fill="none" xmlns="http://www.w3.org/2000/svg">
<g clip-path="url(#clip0_1_2544)">
<path d="M44.4551 56.4844H42.6973V52.7344H18.0879V56.4844H16.3301C15.3585 56.4844 14.5723 57.2706 14.5723 58.2422C14.5723 59.2138 15.3585 60 16.3301 60H44.4551C45.4267 60 46.2129 59.2138 46.2129 58.2422C46.2129 57.2706 45.4267 56.4844 44.4551 56.4844Z" fill="#0F6BAC"/>
<path d="M30.6472 14.0986L30.3983 13.6008L30.1597 14.078C29.7266 14.9698 28.8496 15.0397 28.8379 15.0514L28.2852 15.1338L28.6645 15.5079C29.0807 15.9044 29.2858 16.5023 29.1795 17.0873L29.092 17.6177L29.588 17.3602C30.086 17.1011 30.6946 17.0929 31.2085 17.3602L31.7046 17.6177L31.6136 17.0667C31.5192 16.5019 31.7063 15.9268 32.1132 15.5268L32.5114 15.1338L31.9586 15.0514C31.3921 14.9655 30.903 14.6102 30.6472 14.0986Z" fill="#0F6BAC"/>
<path d="M58.2422 3.51562H49.2986C49.3132 2.93109 49.3359 2.35266 49.3359 1.75781C49.3359 0.786211 48.5497 0 47.5781 0H12.4219C11.4503 0 10.6641 0.786211 10.6641 1.75781C10.6641 2.35266 10.6868 2.93133 10.7014 3.51562H1.75781C0.786211 3.51562 0 4.30184 0 5.27344V9.72633C0 19.5397 7.85977 27.5113 17.5471 28.0269C19.5673 30.8057 21.9729 32.8686 24.6957 34.0404C24.2964 42.0613 20.0407 47.6167 18.664 49.2186H41.3332C39.957 47.6278 35.7021 42.1055 35.3027 34.0404C38.0264 32.869 40.4331 30.8061 42.4535 28.0269C52.1402 27.5111 60 19.5396 60 9.72633V5.27344C60 4.30184 59.2138 3.51562 58.2422 3.51562ZM3.51562 9.72633V7.03125H10.8765C11.4009 13.7284 12.9246 19.5998 15.2535 24.2236C8.61527 22.7289 3.51562 16.8097 3.51562 9.72633ZM37.0862 15.1697L34.8323 17.3892L35.3508 20.51C35.4607 21.1675 35.1894 21.8302 34.6504 22.2198C34.1096 22.6125 33.3989 22.6649 32.8068 22.3589L30 20.9014L27.1934 22.3589C26.5995 22.661 25.8887 22.6112 25.3498 22.2198C24.8107 21.8302 24.5395 21.1676 24.6493 20.51L25.1678 17.3892L22.9139 15.1697C22.4303 14.6933 22.2748 13.9903 22.4762 13.3741C22.6822 12.7424 23.2281 12.2789 23.8873 12.1794L27.0149 11.709L28.4277 8.88176C29.0216 7.69043 30.9786 7.69043 31.5725 8.88176L32.9854 11.709L36.113 12.1794C36.7721 12.279 37.318 12.7425 37.524 13.3741C37.7299 14.0075 37.56 14.7028 37.0862 15.1697ZM56.4844 9.72633C56.4844 16.8095 51.3847 22.7286 44.7468 24.2234C47.0754 19.5996 48.5993 13.7286 49.1235 7.03125H56.4844V9.72633Z" fill="#0F6BAC"/>
</g>
<defs>
<clipPath id="clip0_1_2544">
<rect width="60" height="60" fill="white"/>
</clipPath>
</defs>
</svg>
