<svg width="60" height="60" viewBox="0 0 60 60" fill="none" xmlns="http://www.w3.org/2000/svg">
<g id="review 2" clip-path="url(#clip0_1_6034)">
<g id="Group">
<path id="Vector" d="M25.7991 18.3745L30.0002 16.6328L34.2014 18.3745C34.7642 18.6069 35.4106 18.5335 35.9076 18.173C36.4021 17.8131 36.674 17.2213 36.626 16.6118L36.2685 12.0782L39.2228 8.61939C39.6201 8.15521 39.7467 7.51642 39.558 6.93505C39.3693 6.35251 38.8912 5.9106 38.2959 5.7688L33.8744 4.70685L31.499 0.828413C30.8667 -0.276196 29.1336 -0.276079 28.5014 0.828413L26.126 4.70685L21.7045 5.7688C21.1092 5.9106 20.631 6.35251 20.4424 6.93505C20.2537 7.51642 20.3803 8.15521 20.7775 8.61939L23.7318 12.0782L23.3744 16.6118C23.3264 17.2213 23.5982 17.8132 24.0928 18.173C24.5886 18.5316 25.2343 18.6089 25.7991 18.3745Z" fill="#0F6BAC"/>
<path id="Vector_2" d="M59.9144 13.8504C59.7258 13.2678 59.2476 12.8259 58.6523 12.6841L54.2308 11.6222L51.8555 7.74372C51.5355 7.22212 50.9683 6.90454 50.3566 6.90454C49.7449 6.90454 49.1777 7.22224 48.8578 7.74372L46.4824 11.6222L42.0609 12.6841C41.4656 12.8259 40.9875 13.2678 40.7988 13.8504C40.6101 14.4317 40.7367 15.0705 41.134 15.5347L44.0883 18.9935L43.7308 23.5271C43.6828 24.1366 43.9547 24.7285 44.4492 25.0883C44.9449 25.447 45.5906 25.5243 46.1555 25.2899L50.3566 23.5481L54.5578 25.2899C55.1207 25.5222 55.7671 25.4488 56.2641 25.0883C56.7586 24.7284 57.0305 24.1366 56.9824 23.5271L56.625 18.9935L59.5793 15.5347C59.9766 15.0705 60.1031 14.4317 59.9144 13.8504Z" fill="#0F6BAC"/>
<path id="Vector_3" d="M14.5176 25.4234C14.8832 25.4234 15.2453 25.3098 15.5512 25.0883C16.0457 24.7284 16.3176 24.1366 16.2695 23.5271L15.9121 18.9935L18.8664 15.5347C19.2637 15.0705 19.3902 14.4317 19.2015 13.8504C19.0129 13.2678 18.5348 12.8259 17.9394 12.6841L13.518 11.6222L11.1426 7.74372C10.8226 7.22212 10.2555 6.90454 9.64374 6.90454C9.03202 6.90454 8.46483 7.22224 8.14491 7.74372L5.76952 11.6222L1.34803 12.6841C0.752722 12.8259 0.274597 13.2678 0.0859249 13.8504C-0.102747 14.4317 0.0238155 15.0705 0.421081 15.5347L3.37538 18.9935L3.01796 23.5271C2.96991 24.1366 3.24178 24.7285 3.73632 25.0883C4.23202 25.447 4.87772 25.5243 5.44257 25.2899L9.64374 23.5481L13.8449 25.2899C14.0617 25.3789 14.2902 25.4234 14.5176 25.4234Z" fill="#0F6BAC"/>
<path id="Vector_4" d="M50.6934 42.2835L48.6133 54.205C48.0906 57.1898 45.4996 59.3671 42.4703 59.3671H30.4738C29.6359 59.3671 28.8145 59.1996 28.0539 58.8867C27.2934 58.5703 26.5938 58.1085 26.002 57.5156C25.9656 57.4792 25.9281 57.4429 25.8906 57.4066V37.6042L25.9703 37.5761C27.6613 36.9691 28.9797 35.6144 29.5375 33.9058L30.5863 30.5496L31.9996 26.0273C32.4156 24.7558 33.782 24.0632 35.0547 24.4792C37.3844 25.2386 38.8656 27.4042 38.8656 29.7281C38.8656 30.2976 38.7766 30.8765 38.5891 31.446L37.0141 36.614H45.9285C48.9332 36.614 51.2113 39.3246 50.6934 42.2835Z" fill="#0F6BAC"/>
<g id="Group_2">
<path id="Vector_5" d="M20.6268 60.0001H12.4899C11.5246 60.0001 10.7422 59.2176 10.7422 58.2524V37.1791C10.7422 36.2139 11.5246 35.4314 12.4899 35.4314H20.6268C21.5921 35.4314 22.3746 36.2139 22.3746 37.1791V58.2524C22.3746 59.2176 21.5921 60.0001 20.6268 60.0001Z" fill="#0F6BAC"/>
</g>
</g>
</g>
<defs>
<clipPath id="clip0_1_6034">
<rect width="60" height="60" fill="white"/>
</clipPath>
</defs>
</svg>
